<?xml version="1.0" encoding="utf-8" ?>
<svg xmlns="http://www.w3.org/2000/svg" xmlns:xlink="http://www.w3.org/1999/xlink" width="256" height="256">
	<path fill="#2C2B2C" transform="scale(0.5 0.5)" d="M138.97 63.8445C157.931 64.8739 183.581 83.663 199.011 95.8636C229.924 85.2503 258.219 81.9876 290.708 90.147C296.72 91.6567 303.224 93.1891 308.84 95.8636C320.192 83.9882 335.625 74.8586 350.887 68.9949C365.741 63.2873 375.709 59.3218 381.578 76.8235C389.319 99.909 391.754 132.453 380.583 154.697C394.206 176.067 396.463 187.841 399.834 211.262C401.376 211.92 426.977 223.114 420.004 227.17C418.147 228.25 406.575 218.512 399.834 216.755C400.039 222.056 399.287 227.155 398.499 232.375C401.735 233.939 417.166 244.089 411.251 248.577C407.829 249.086 407.392 245.943 405.967 243.696C404.365 241.172 400.944 239.01 398.499 237.345C396.382 241.143 395.342 245.237 393.925 249.325C386.116 271.864 368.301 290.238 348.462 302.757C344.846 305.038 340.797 306.623 337.207 308.927L336.991 309.069C353.015 327.336 358.048 345.765 360.287 368.86C372.942 363.368 387.585 344.98 378.466 331.651C374.95 326.512 371.513 324.38 369.739 317.888C362.258 290.523 409.327 277.314 421.102 321.571C431.184 363.95 390.229 397.32 351.711 403.779C350.323 405.329 349.089 407.016 347.851 408.685C355.515 415.895 358.623 428.707 349.418 435.934C334.695 447.492 309.246 435.469 293.9 443.068C283.854 448.043 270.812 447.301 263.674 437.957C257.043 438.501 250.229 437.71 243.56 437.957C236.301 446.435 224.668 448.279 214.609 443.669C200.043 436.993 171.775 447.589 157.832 434.708C149.942 427.419 152.928 415.798 159.481 408.685C157.601 405.722 155.448 402.9 153.733 399.839C139.849 375.066 148.201 342.836 162.198 320.091C164.632 316.136 167.14 312.185 170.631 309.069C142.433 295.105 115.916 269.776 109.076 238.187C105.778 240.878 100.945 249.349 98.5391 249.161C92.568 245.524 104.658 235.417 107.713 233.872C106.91 228.472 106.124 223.28 106.532 217.797C101.831 219.186 93.1845 226.396 91.847 226.161C89.6748 225.779 90.8807 222.927 91.6296 221.722C94.3371 217.365 101.684 214.174 106.532 212.961C107.297 193.413 116.03 170.868 126.813 154.697C116.953 129.43 116.938 107.396 124.418 81.0047C126.816 72.5451 129.071 65.0346 138.97 63.8445ZM130.506 149.295C132.142 146.907 133.924 144.678 135.751 142.436C129.024 131.614 131.576 93.4536 137.862 84.9902C135.315 81.4244 137.049 78.3812 141.539 80.0867C154.217 84.9024 163.547 93.4651 171.98 103.828C181.134 115.078 178.791 112.504 167.714 120.187C142.999 137.328 123.661 162.466 115.546 191.608C113.738 198.099 113.243 204.85 111.486 211.262C113.047 211.136 140.581 209.605 132.943 216.213C132.538 216.563 117.41 215.134 111.486 216.755C111.259 221.306 111.712 225.812 112.386 230.309C116.207 228.635 129.856 222.121 132.867 227.132C133.151 230.244 118.578 232.381 113.479 235.468C115.133 241.764 117.327 248.903 120.648 254.518C125.371 269.685 151.168 292.228 164.247 299.745C228.163 336.482 359.348 328.086 388.94 247.362C390.408 243.356 391.515 239.187 393.645 235.468L390.003 233.872C386.683 232.489 374.161 232.104 375.715 227.981C377.349 223.645 390.938 229.075 393.645 230.309C394.18 225.387 394.731 220.476 394.65 215.518C388.467 214.646 384.264 215.204 378.221 216.218C375.854 216.615 372.999 214.621 375.231 212.287C377.839 209.56 390.801 210.159 394.65 210.248C389.69 174.454 375.171 147.565 346.272 124.525C343.934 122.662 331.236 114.274 330.312 112.654C329.136 110.596 334.126 105.932 335.316 104.532C343.69 94.6805 353.049 85.5818 364.865 79.9677C368.425 78.2761 375.238 77.2153 371.94 82.562C371.897 83.3651 371.792 84.1952 371.94 84.9902C376.449 108.272 377.659 121.056 372.884 143.895L373.812 145.013C375.375 144.6 377.42 144.85 378.736 145.829C385.712 124.661 382.742 106.962 378.736 85.7456C376.937 80.4878 375.519 72.5601 370.288 69.7715C356.178 69.0488 326.732 86.3903 316.916 95.2445C314.327 97.5801 311.867 100.329 308.84 102.098C304.439 99.3735 299.018 97.9116 294.061 96.4901C262.414 87.4161 229.329 89.9769 199.011 102.098L198.709 101.952C194.206 99.7292 187.84 93.3982 183.323 90.1406C172.574 82.3899 160.669 76.018 148.147 71.6725C131.984 66.0636 131.566 73.9933 128.229 87.6893C123.291 107.959 122.37 129.715 130.506 149.295ZM175.298 311.084C156.984 332.272 152.521 351.933 152.01 378.407C158.348 379.247 166.006 386.473 175.298 387.277C173.988 383.19 169.625 366.807 171.325 363.566C172.833 360.691 175.614 361.624 176.24 364.369C176.862 367.092 176.935 370.019 177.344 372.79C180.353 393.167 200.739 441.138 226.272 440.697C225.69 438.766 221.611 429.783 221.663 429.409C225.538 428.367 228.919 438.174 229.858 440.697C232.475 439.659 235.175 438.703 237.669 437.391C235.614 432.505 232.727 429.906 230.651 425.74C234.888 427.794 236.998 430.376 239.613 434.233C244.632 418.908 229.671 417.492 225.725 405.051C224.289 400.523 220.744 383.535 222.105 379.615C222.772 377.695 226.204 377.423 226.851 379.442C227.94 382.837 227.675 390.462 228.901 395.367C231.392 394.675 246.476 396.278 250.532 396.368C260.436 396.587 270.076 395.069 279.918 394.553C281.245 389.799 281.295 384.738 282.494 380.358C283.182 377.846 286.316 376.943 287.566 379.658C289.037 382.854 282.357 407.256 280.272 410.474C274.898 418.769 261.115 422.897 268.51 436.148C270.646 431.76 272.832 428.569 277.773 426.927C275.63 430.784 272.448 433.96 270.353 437.957C274.102 440.483 277.401 440.749 281.831 440.697C282.769 437.174 284.085 431.924 287.405 429.876C290.532 427.948 285.896 438.976 285.547 440.116C310.326 435.261 326.653 396.127 330.008 372.772C330.149 371.792 331.535 355.637 335.87 362.625C337.907 365.908 333.104 383.17 332.053 387.277C334.914 386.193 353.106 378.458 354.279 378.407C356.954 355.364 347.839 328.377 332.053 311.084C282.902 329.537 224.018 331.362 175.298 311.084ZM379.588 301.444C371.388 308.568 373.369 317.379 379.819 325.061C393.898 341.827 382.22 364.536 364.362 372.287C362.97 372.891 359.814 373.194 359.7 374.972C359.562 383.18 357.436 390.511 354.279 398.011C394.248 392.996 435.986 344.035 409.105 307.905C402.097 298.486 389.67 293.842 379.588 301.444ZM228.901 395.367C230.913 408.645 232.137 406.758 239.621 414.83C244.961 420.588 245.988 425.403 245.723 433.029L261.594 433.029C261.027 424.463 263.386 419.071 269.841 413.306C277.937 406.076 277.11 405.546 279.918 394.553C270.076 395.069 260.436 396.587 250.532 396.368C246.476 396.278 231.392 394.675 228.901 395.367ZM332.053 387.277C328.53 399.372 323.774 410.531 317.008 421.169C339.478 416.444 351.153 401.135 354.279 378.407C353.106 378.458 334.914 386.193 332.053 387.277ZM152.01 378.407C157.865 400.943 165.795 415.464 191.301 421.169C184.103 410.825 178.406 399.54 175.298 387.277C166.006 386.473 158.348 379.247 152.01 378.407ZM344.562 412.923C332.796 422.06 327.994 424.389 313.216 426.927C310.291 429.893 307.271 432.91 304.651 436.148C307.013 435.941 309.204 435.906 311.562 436.148C321.043 436.105 340.918 437.559 347.591 430.712C352.052 426.135 349.018 415.179 344.562 412.923ZM162.671 412.923C158.196 418.398 156.026 426.662 162.329 431.618C169.03 436.888 179.443 436.184 187.487 436.162L200.063 436.148C201.452 436.165 202.843 436.203 204.232 436.148C201.28 433.158 198.234 430.221 195.618 426.927C185.949 426.57 176.855 423.138 168.986 417.495C167.07 416.12 164.885 413.639 162.671 412.923ZM373.812 145.013C374.888 146.511 376.009 147.913 377.23 149.295C377.735 148.146 378.287 147 378.736 145.829C377.42 144.85 375.375 144.6 373.812 145.013Z"/>
	<path fill="#FAB29C" transform="scale(0.5 0.5)" d="M137.862 84.9902C145.993 82.3131 167.036 105.505 171.26 111.566C157.929 120.126 146.022 130.374 135.751 142.436C129.024 131.614 131.576 93.4536 137.862 84.9902Z"/>
	<path fill="#FAB29C" transform="scale(0.5 0.5)" d="M336.991 111.566C343.727 98.7093 358.5 87.9811 371.94 82.562C371.897 83.3651 371.792 84.1952 371.94 84.9902C376.449 108.272 377.659 121.056 372.884 143.895C366.127 134.791 347.215 116.024 336.991 111.566Z"/>
	<path fill="#E3DEDF" transform="scale(0.5 0.5)" d="M359.7 374.972C359.814 373.194 362.97 372.891 364.362 372.287C382.22 364.536 393.898 341.827 379.819 325.061C373.369 317.379 371.388 308.568 379.588 301.444C382.39 305.895 373.961 309.982 386.486 324.322C399.132 338.801 389.306 363.71 374.63 372.838C369.131 376.258 361.718 382.12 359.7 374.972Z"/>
	<path fill="#2C2B2C" transform="scale(0.5 0.5)" d="M304.651 149.295C310.031 148.6 323.057 154.79 318.887 158.96C316.656 161.191 314.697 157.961 313.216 156.501C305.091 150.561 303.314 155.952 298.571 155.769C297.439 155.725 296.428 154.148 296.731 153.093C297.517 150.358 302.331 149.472 304.651 149.295Z"/>
	<path fill="#2C2B2C" transform="scale(0.5 0.5)" d="M188.582 149.295C193.381 149.058 201.347 152.262 196.659 154.832C193.427 156.604 190.594 150.843 182.752 157.35L182.476 157.582C180.944 159.103 179.664 162.318 176.976 161.578C171.68 157.463 184.382 150.244 188.582 149.295Z"/>
	<path fill="#E3DEDF" transform="scale(0.5 0.5)" d="M371.94 84.9902C376.089 91.3645 376.874 119.642 376.302 127.183C380.295 124.153 381.141 130.493 381.149 133.034C384.104 129.263 381.295 101.326 380.464 96.6107C379.908 93.452 377.924 88.8754 378.736 85.7456C382.742 106.962 385.712 124.661 378.736 145.829C377.42 144.85 375.375 144.6 373.812 145.013L372.884 143.895C377.659 121.056 376.449 108.272 371.94 84.9902Z"/>
	<path fill="#2C2B2C" transform="scale(0.5 0.5)" d="M251.291 206.372C279.565 204.551 276.444 222.042 257.31 225.458C248.536 226.168 230.83 219.27 238.372 210.471C241.414 206.923 246.98 206.755 251.291 206.372Z"/>
	<path fill="#FEC6EB" transform="scale(0.5 0.5)" d="M251.291 211.262C265.244 209.22 275.347 215.694 258.276 220.572C253.907 221.22 237.973 218.814 242.203 213.101C243.442 211.429 249.261 211.449 251.291 211.262Z"/>
	<path fill="#2C2B2C" transform="scale(0.5 0.5)" d="M305.921 180.254C328.563 178.449 342.119 202.581 331.167 203.492C325.69 203.947 323.176 188.099 308.84 189.848C298.948 188.936 293.833 195.137 289.745 203.39C286.477 209.986 276.136 204.858 285.959 191.775C291.007 185.051 297.692 181.442 305.921 180.254Z"/>
	<path fill="#2C2B2C" transform="scale(0.5 0.5)" d="M190.144 180.254C203.827 173.399 228.647 200.349 219.412 205.169C211.488 209.305 211.916 194.107 199.357 189.959L199.011 189.848C182.584 183.123 176.175 201.58 170.631 203.362C156.819 200.257 175.757 179.226 190.144 180.254Z"/>
	<path fill="#FAB29C" transform="scale(0.5 0.5)" d="M339.391 213.611C345.052 213.338 350.527 214.03 355.368 217.221C369.139 226.295 357.734 237.959 344.562 239.746C338.438 239.827 331.95 238.938 326.912 235.148C314.516 225.821 326.775 214.784 339.391 213.611Z"/>
	<path fill="#FAB29C" transform="scale(0.5 0.5)" d="M161.43 212.961C174.345 210.977 192.091 222.211 181.173 234.08C177.678 237.88 172.041 239.439 167.062 239.746C155.261 241.266 137.06 232.289 146.495 220.02C150.04 215.409 155.912 213.653 161.43 212.961Z"/>
	<path fill="#2C2B2C" transform="scale(0.5 0.5)" d="M295.067 230.309C299.987 230.644 299.636 234.266 297.656 238.05C294.527 244.03 289.901 245.63 283.841 247.549C281.174 260.427 274.229 276.235 260.876 280.742C238.99 288.129 229.743 265.217 224.203 248.518C223.198 247.844 221.243 247.564 220.049 247.15C214.779 245.32 203.361 234.272 210.705 230.969C213.363 231.051 214.176 235.35 215.43 237.294C222.008 247.487 239.744 242.761 247.86 237.371C256.716 231.489 250.774 231.717 260.78 238.21C268.576 243.27 289.322 246.499 293.414 234.374C293.884 232.983 294.226 231.536 295.067 230.309Z"/>
	<path fill="#FB8F8C" transform="scale(0.5 0.5)" d="M235.285 262.241C245.544 254.589 262.249 256.295 273.193 262.241C264.042 282.332 245.291 281.8 235.285 262.241Z"/>
	<path fill="#DF3D38" transform="scale(0.5 0.5)" d="M229.858 248.518C239.522 248.157 245.902 245.293 253.665 239.746C262.29 245.022 268.638 247.242 278.918 247.549C277.322 252.525 275.708 257.635 273.193 262.241C262.249 256.295 245.544 254.589 235.285 262.241C233.269 257.753 231.41 253.189 229.858 248.518Z"/>
	<path fill="#E3DEDF" transform="scale(0.5 0.5)" d="M390.003 233.872L393.645 235.468C391.515 239.187 390.408 243.356 388.94 247.362C359.348 328.086 228.163 336.482 164.247 299.745C151.168 292.228 125.371 269.685 120.648 254.518C121.765 254.781 125.498 263.081 127.296 264.52C127.195 263.9 122.785 254.459 122.344 253.876C119.226 249.75 126.697 258.634 127.117 259.147C160.848 300.367 223.548 310.65 273.605 306.206C321.201 301.981 371.208 281.241 390.003 233.872Z"/>
</svg>
