<?xml version="1.0" encoding="utf-8" ?>
<svg xmlns="http://www.w3.org/2000/svg" xmlns:xlink="http://www.w3.org/1999/xlink" width="256" height="256">
	<path fill="#383738" transform="scale(0.5 0.5)" d="M95.2183 341.71C99.9639 341.784 98.6739 344.641 98.3817 348.221C97.7036 356.53 108.26 363.389 115.693 362.508C117.757 362.263 119.784 361.278 121.894 361.517C125.266 361.899 125.168 364.734 122.594 366.128C102.229 373.158 86.9506 349.767 95.2183 341.71Z"/>
	<path fill="#383738" transform="scale(0.5 0.5)" d="M119.48 331.997C128.049 326.354 136.879 331.859 135.935 341.344C135.352 347.201 131.177 350.42 126.986 353.913C124.923 355.254 122.875 356.616 120.722 357.81C105.71 353.784 97.1591 333.4 112.708 329.54C115.618 329.256 117.304 330.245 119.48 331.997ZM125.505 334.261C123.797 335.149 120.951 338.894 119.615 338.961C116.389 336.567 114.101 330.724 110.14 336.674C107.495 340.648 111.48 346.68 114.378 349.277C116.261 350.228 117.862 351.229 119.48 352.59C130.338 348.071 136.282 335.123 125.505 334.261Z"/>
	<path fill="#383738" transform="scale(0.5 0.5)" d="M77.1255 306.553C81.0668 304.789 83.8874 307.582 86.2192 310.51C92.7965 301.543 104.631 306.82 105.601 317.37C106.398 326.039 100.204 329.999 95.3957 335.913L95.2183 336.136C92.2085 337.9 89.3928 340.29 86.2192 341.71C75.3733 336.424 59.0351 320.849 70.4086 308.974C72.3785 306.918 74.4322 306.619 77.1255 306.553Z"/>
	<path fill="#FE9889" transform="scale(0.5 0.5)" d="M77.1255 310.51C82.6148 310.328 82.0554 314.166 85.2672 316.288C87.7097 317.902 89.5684 311.212 93.6506 310.608C97.1923 310.084 100.3 313.682 100.674 316.9C101.28 322.124 98.1795 325.7 95.2183 329.54C92.1186 331.61 89.3945 334.158 86.2192 336.136C78.8023 331.827 62.4142 315.892 77.1255 310.51Z"/>
	<path fill="#383738" transform="scale(0.5 0.5)" d="M134.664 70.8132C145.621 69.5863 180.257 99.1995 188.928 107.43C195.647 113.808 201.615 120.726 207.988 127.414C232.596 122.922 252.877 121.339 278.277 124.273C285.536 125.112 292.631 126.83 299.862 127.748C313.701 109.128 342.673 84.5392 363.281 73.8103C385.053 62.4753 388.782 89.0155 392.067 103.512C399.873 137.961 401.221 170.545 389.21 204.133C393.085 213.157 403.505 228.161 413.91 230.032C416.292 230.46 423.314 229.259 423.842 232.489C424.344 235.567 418.709 241.802 416.76 244.205C431.188 250.015 434.583 246.478 417.704 261.71C412.208 296.295 399.657 311.569 369.966 330.695C385.56 346.251 395.617 369.87 390.092 391.809C381.842 424.757 357.816 429.178 329.754 432.967C275.998 440.224 237.496 440.441 183.483 432.111C169.149 429.9 154.889 428.622 144.003 417.978C121.86 396.329 132.538 356.783 151.961 337.17C122.548 323.421 93.1654 296.238 92.2322 261.71C75.0625 248.061 77.9985 248.465 93.0602 244.205C80.2148 231.313 85.8548 231.907 95.8428 229.397C105.875 226.876 114.388 216.221 119.48 207.785C104.228 175.141 107.172 128.365 116.712 94.9796C119.851 83.9925 121.704 73.2016 134.664 70.8132ZM92.2322 235.299C98.5228 243.827 103.527 243.778 112.852 246.894C114.698 247.51 114.887 250.103 113.078 250.814C109.551 252.201 101.045 248.589 97.6071 247.239C94.3287 248.349 91.0932 249.669 87.8891 250.978C93.6344 256.539 99.3349 261.077 107.104 263.552C108.257 263.919 119.925 265.624 115.618 269.4C114.282 270.572 111.344 269.979 109.715 269.845C107.86 268.946 105.983 268.27 104.03 267.615C102.263 270.616 101.297 273.834 99.8221 276.94C107.234 301.298 127.411 318.832 149.216 330.473C185.3 349.736 225.592 355.232 265.928 354.919C269.173 354.894 272.411 354.704 275.653 354.937C278.923 344.422 285.849 342.644 294.514 338.99C298.207 337.502 301.962 336.525 305.926 336.136C301.645 321.08 301.541 302.252 318.756 295.759C334.575 289.793 332.908 304.515 334.234 313.74C334.744 317.29 335.844 320.72 337.036 324.091C338.857 321.91 345.316 319.942 348.162 318.618C366.5 310.09 382.231 300.338 393.835 283.288C395.909 280.24 397.182 276.718 399.167 273.604L399.401 273.24C400.028 273.73 403.144 273.385 404.211 273.661C406.036 274.134 407.35 276.9 409.241 276.92L409.911 276.231C410.989 272.585 411.748 268.907 412.428 265.172C408.507 267.005 404.731 268.641 400.554 269.845C398.27 270.332 395.587 270.754 394.023 268.485C393.971 265.461 410.921 262.996 422.339 250.978C418.59 250.03 415.091 248.849 411.566 247.239C408.173 248.631 400.556 251.831 397.562 250.025C391.782 246.538 404.755 244.484 405.31 244.313C410.537 242.706 414.489 239.744 417.704 235.299C396.157 235.136 384.821 205.711 376.71 189.712C364.074 164.789 345.186 148.051 319.293 138.628C262.274 117.878 169.463 122.442 136.53 182.279C124.506 204.126 121.593 228.476 92.2322 235.299ZM156.389 339.48C153.549 342.559 150.618 345.738 148.365 349.277C135.157 368.964 129.159 403.269 152.163 418.453C158.775 422.818 166.136 424.049 173.721 425.612C169.965 414.506 165.435 387.803 170.08 379.116C171.159 377.098 173.899 377.981 174.274 380.001C174.816 382.92 173.801 386.595 173.723 389.615C173.386 402.575 174.238 414.531 179.475 426.582C228.856 435.204 270.365 435.917 319.916 429.422C324.48 428.824 329.06 427.961 333.635 427.515C335.737 422.965 336.534 418.089 337.924 413.312C323.344 416.875 285.433 422.932 285.031 398.898C279.106 394.466 275.863 388.92 279.778 382.025C278.065 380.446 276.654 379.045 275.653 376.896C274.303 371.568 275.475 368.05 278.12 363.45C277.224 362.246 276.352 361.081 275.653 359.748C234.892 360.82 193.904 356.004 156.389 339.48ZM324.203 299.345C307.167 301.467 306.175 320.139 310.289 333.565C313.535 344.158 310.097 340.343 301.427 341.896C294.099 343.209 281.073 347.948 280.216 356.883C279.284 366.604 300.392 356.793 304.799 359.931C306.997 365.483 285.208 365.766 283.037 366.128C281.306 367.731 279.954 369.359 279.826 371.844C279.068 386.571 303.231 376.01 305.947 378.363C309.799 385.415 286.89 384.473 283.746 384.048C279.614 395.54 295.071 399.186 303.585 396.845C305.474 396.109 310.122 393.104 311.532 395.918C312.422 403.323 294.286 401.968 289.908 401.735C295.64 420.546 350.256 413.013 362.015 390.722C370.494 374.646 365.287 354.773 348.942 346.334C335.739 339.516 330.443 323.734 329.012 309.738C328.565 305.37 329.701 299.725 324.203 299.345ZM122.594 201.782C124.719 196.305 127.397 189.142 130.131 184.05C128.875 180.995 128.715 177.248 128.138 174C124.291 152.329 126.738 127.371 134.382 106.561C136.186 101.649 137.209 101.839 141.459 99.8075L141.796 99.644C147.755 90.2462 182.065 130.109 186.044 134.385C191.433 132.012 196.97 130.264 202.667 128.795C185.775 110.206 167.111 92.7757 145.219 80.1846C139.437 76.8589 134.793 73.0333 128.783 78.6955C122.637 84.4856 116.551 115.922 115.285 125.193C112.637 144.588 113.089 183.758 122.594 201.782ZM305.926 128.795C310.221 130.891 317.09 132.663 321.842 134.385C330.1 123.242 340.4 113.065 351.479 104.729C355.883 101.416 361.664 95.0657 364.826 100.864C373.511 102.311 374.804 108.323 376.681 115.836C380.255 130.139 383.515 166.618 377.045 180.207C380.725 185.763 382.994 192.039 386.516 197.686C397.367 160.723 394.26 121.109 382.099 84.7481C377.549 71.1456 367.895 76.4312 358.636 82.0646C347.496 88.8429 311.719 116.263 305.926 128.795ZM364.826 333.045C359.668 335.91 353.981 338.904 348.31 340.583C358.606 346.014 365.489 351.455 369.032 363.017C376.199 386.405 363.547 402.569 343.107 412C341.683 416.688 340.446 421.759 339.594 426.582C346.479 427.45 363.61 420.492 368.816 416.448C393.386 397.361 389.916 363.457 372.246 340.929C370.586 338.812 367.152 334.264 364.826 333.045ZM97.6071 265.172C98.0352 269.101 98.6121 273.165 99.8221 276.94C101.297 273.834 102.263 270.616 104.03 267.615C101.892 266.796 99.76 265.951 97.6071 265.172Z"/>
	<path fill="#FEFEFE" transform="scale(0.5 0.5)" d="M399.401 273.24C400.028 273.73 403.144 273.385 404.211 273.661C406.036 274.134 407.35 276.9 409.241 276.92L409.911 276.231C399.296 312.822 373.692 322.048 344.687 337.17C341.766 332.919 338.943 328.915 337.036 324.091C338.857 321.91 345.316 319.942 348.162 318.618C366.5 310.09 382.231 300.338 393.835 283.288C395.909 280.24 397.182 276.718 399.167 273.604L399.401 273.24Z"/>
	<path fill="#FE9889" transform="scale(0.5 0.5)" d="M364.826 100.864C373.511 102.311 374.804 108.323 376.681 115.836C380.255 130.139 383.515 166.618 377.045 180.207C366.155 163.668 346.734 141.839 326.549 136.578C334.553 125.231 345.291 115.091 356.706 107.155C359.112 105.482 363.551 103.62 364.826 100.864Z"/>
	<path fill="#FE9889" transform="scale(0.5 0.5)" d="M130.131 184.05C128.875 180.995 128.715 177.248 128.138 174C124.291 152.329 126.738 127.371 134.382 106.561C136.186 101.649 137.209 101.839 141.459 99.8075L141.796 99.644C142.617 102.991 147.387 104.97 150.035 106.756C161.796 114.688 173.288 124.79 181.219 136.578C163.085 145.133 148.27 156.264 136.709 172.855C134.23 176.412 132.586 180.542 130.131 184.05Z"/>
	<path fill="#383738" transform="scale(0.5 0.5)" d="M312.981 203.118L313.199 203.116C323.579 203.118 342.17 212.018 341.797 223.413C341.675 227.166 338.518 229.592 334.884 229.361C328.901 228.981 327.624 216.978 315.251 216.354L314.814 216.335C307.151 215.637 302.227 220.909 297.849 226.404C294.292 230.87 286.497 229.482 286.208 223.25C285.743 213.189 303.766 203.671 312.981 203.118Z"/>
	<path fill="#383738" transform="scale(0.5 0.5)" d="M194.184 203.118C204.511 200.488 224.309 211.885 223.908 223.548C223.778 227.305 220.469 229.634 216.842 229.416C210.237 229.019 210.868 216.673 196.72 216.335C181.724 215.842 181.691 230.2 174.673 230.777C171.126 231.069 167.623 228.319 167.452 224.718C166.932 213.787 184.19 203.679 194.184 203.118Z"/>
	<path fill="#FEB6C5" transform="scale(0.5 0.5)" d="M339.594 246.241C347.202 246.088 354.733 246.346 361.098 251.079C374.01 260.679 359.477 270.601 348.31 271.962C341.008 272.598 333.589 272.015 327.332 267.82C312.401 257.807 327.464 248.217 339.594 246.241Z"/>
	<path fill="#FEB6C5" transform="scale(0.5 0.5)" d="M164.743 246.241C176.247 243.815 198.755 251.753 189.198 265.134C185.143 270.81 177.76 272.285 171.309 273.24C162.962 273.567 154.206 272.681 148.104 266.233C138.223 255.792 154.184 245.263 164.743 246.241Z"/>
	<path fill="#383738" transform="scale(0.5 0.5)" d="M255.645 237.394C261.274 237.218 278.229 237.379 276.409 246.325C274.897 253.758 265.065 257.338 259.443 260.953C266.505 270.754 283.159 277.702 290.211 265.121C291.306 263.169 293.334 257.075 296.357 260.812C297.913 267.054 288.19 274.281 283.037 276.231C279.973 290.106 274.487 313.44 255.645 311.15C239.318 309.633 232.868 290.942 231.483 276.94C225.008 275.665 220.661 273.545 216.666 268.219C215.188 266.248 212.794 260.986 216.223 259.683C219.973 260.279 219.796 266.856 225.686 269.939C235.127 274.881 248.372 270.356 253.22 260.953C247.447 258.72 230.527 250.022 237.44 241.989C241.175 237.648 250.346 237.648 255.645 237.394Z"/>
	<path fill="#FEB6C5" transform="scale(0.5 0.5)" d="M254.883 242.487C272.063 240.04 278.814 247.631 257.329 256.027C252.616 257.283 225.176 243.397 254.883 242.487Z"/>
	<path fill="#FEB6C5" transform="scale(0.5 0.5)" d="M255.645 289.598C261.855 289.098 268.003 290.05 273.496 293.081C270.942 299.624 266.32 304.476 259.443 306.553C250.855 307.792 244.748 302.126 241.018 294.841C245.562 291.813 250.228 290.205 255.645 289.598Z"/>
	<path fill="#BF3237" transform="scale(0.5 0.5)" d="M256.543 265.902C257.82 266.514 258.919 268.328 260.029 269.318C265.132 273.87 271.365 276.328 278.12 276.94C277.362 280.73 276.392 284.471 275.653 288.268C269.373 286.133 263.269 284.107 256.543 285.054C249.342 285.247 245.337 286.975 239.209 290.528C237.376 286.276 236.615 281.49 235.872 276.94C245.236 275.87 250.031 272.421 256.543 265.902Z"/>
	<path fill="#FEFEFE" transform="scale(0.5 0.5)" d="M104.03 267.615C105.983 268.27 107.86 268.946 109.715 269.845C111.846 274.18 113.857 278.585 116.541 282.614C147.187 328.602 219.064 340.574 270.151 338.771C271.08 338.738 280.498 338.253 280.559 338.268C281.373 338.467 279.618 338.507 279.428 338.559C283.917 340.406 276.525 339.591 275.432 339.924C274.796 340.117 273.873 343.185 273.324 343.909C268.613 350.111 256.478 354.824 248.914 351.122C246.336 349.861 240.398 350.043 237.279 349.473C229.086 347.975 222.326 344.808 213.124 344.742C206.173 344.693 201.221 349.132 190.401 345.582C190.02 345.457 189.722 345.525 189.335 345.58L190.126 345.431L190.248 345.878C212.656 350.937 228.798 353.764 252.497 354.468C255.701 354.563 272.996 355.19 275.099 353.906C278.791 347.086 285.987 338.204 294.514 338.99C285.849 342.644 278.923 344.422 275.653 354.937C272.411 354.704 269.173 354.894 265.928 354.919C225.592 355.232 185.3 349.736 149.216 330.473C127.411 318.832 107.234 301.298 99.8221 276.94C101.297 273.834 102.263 270.616 104.03 267.615Z"/>
</svg>
