<?xml version="1.0" encoding="utf-8" ?>
<svg xmlns="http://www.w3.org/2000/svg" xmlns:xlink="http://www.w3.org/1999/xlink" width="256" height="256">
	<path fill="#363636" transform="scale(0.5 0.5)" d="M402.172 141.247C436.059 140.776 462.032 168.088 455.064 202.297C449.767 228.299 423.378 246.246 397.239 240.691C388.183 239.063 382.054 235.781 374.571 230.691C370.529 231.711 354.965 237.851 351.886 235.039C350.901 232.004 358.999 218.958 360.794 215.357C344.195 182.105 365.826 146.028 402.172 141.247ZM375.8 225.965C380.152 230.598 390.872 235.132 397.112 236.393C421.987 241.418 445.844 225.481 450.707 200.579C452.493 191.436 451.455 178.207 446.171 170.281L445.783 170.605C443.285 168.481 441.423 165.565 438.892 163.35C421.736 148.33 392.01 147.513 376.698 165.626C362.212 182.763 364.473 207.963 375.8 225.965ZM365.499 215.357C363.672 220.75 359.927 225.553 357.469 230.691C363.668 229.512 369.574 226.961 375.8 225.965C364.473 207.963 362.212 182.763 376.698 165.626C392.01 147.513 421.736 148.33 438.892 163.35C441.423 165.565 443.285 168.481 445.783 170.605L446.171 170.281C420.704 120.056 338.109 152.296 365.499 215.357Z"/>
	<path fill="#7DF1AA" transform="scale(0.5 0.5)" d="M375.8 225.965C364.473 207.963 362.212 182.763 376.698 165.626C392.01 147.513 421.736 148.33 438.892 163.35C441.423 165.565 443.285 168.481 445.783 170.605L446.171 170.281C451.455 178.207 452.493 191.436 450.707 200.579C445.844 225.481 421.987 241.418 397.112 236.393C390.872 235.132 380.152 230.598 375.8 225.965ZM424.739 169.281C418.91 170.686 403.785 188.864 397.239 193.876C378.551 171.706 368.622 193.842 376.354 202.085C378.831 204.726 381.578 207.185 384.181 209.707C399.15 224.022 402.244 217.831 414.988 205.378C420.501 199.991 437.156 187.024 436.96 179.312C436.782 172.334 431.203 168.857 424.739 169.281Z"/>
	<path fill="#363636" transform="scale(0.5 0.5)" d="M424.739 169.281C431.203 168.857 436.782 172.334 436.96 179.312C437.156 187.024 420.501 199.991 414.988 205.378C402.244 217.831 399.15 224.022 384.181 209.707C381.578 207.185 378.831 204.726 376.354 202.085C368.622 193.842 378.551 171.706 397.239 193.876C403.785 188.864 418.91 170.686 424.739 169.281ZM426.122 173.552C420.852 174.795 403.855 195.414 397.239 199.716L396.934 199.473C393.784 196.941 387.188 188.279 383.149 188.692C379.909 189.022 377.159 192.824 377.833 196.002C378.414 198.738 382.063 201.272 384.181 202.882C398.665 221.377 402.161 211.322 414.503 199.557C419.675 194.626 427.56 188.036 431.747 182.609C435.077 178.291 430.569 173.702 426.122 173.552Z"/>
	<path fill="#363636" transform="scale(0.5 0.5)" d="M293.062 67.1055C312.261 64.5241 309.344 123.713 308.306 134.29C307.696 140.502 306.113 146.62 305.913 152.866C310.769 172.55 315.534 177.643 311.125 201.227C313.119 202.082 330.782 210.916 326.4 214.404C324.01 216.307 313.792 206.485 309.724 205.982C308.238 211.15 305.954 215.998 303.765 220.891C318.665 232.924 315.599 240.396 311.704 236.439C308.041 232.716 305.852 228.701 301.207 224.355C294.262 232.673 289.755 238.022 280.426 244.498C282.861 248.653 282.904 252.358 282.833 257.045C284.363 258.74 285.579 260.827 287.003 262.63C294.281 271.836 300.652 273.875 309.923 280.005C329.803 293.151 343.498 313.652 347.852 337.016C348.197 338.862 348.467 348.076 350.257 348.207C354.795 348.54 363.579 341.799 366.583 338.677C377.205 327.635 380.009 311.008 373.504 297.121C370.882 291.522 366.229 287.01 366.148 280.459C366.031 270.949 374.86 263.392 384.057 263.328C404.413 263.188 412.777 297.925 412.676 313.243C412.433 349.853 384.103 382.7 346.417 382.474C344.304 389.895 342.139 396.956 339.036 404.051C334.716 413.929 329.177 418.328 332.054 429.056C338.591 453.428 311.223 460.585 296.184 451.844C288.029 447.104 286.082 436.012 292.569 428.935C299.107 421.802 296.62 423.781 292.147 415.94C289.32 410.982 287.342 405.202 285.875 399.701C285.071 405.737 282.226 423.813 280.426 428.539C280.567 433.766 280.137 440.441 278.998 445.522C274.972 463.482 244.883 466.629 235.489 451.747C230.667 451.753 225.692 451.969 220.933 451.07C204.278 447.927 203.828 431.626 217.446 422.417C215.02 417.137 209.436 407.264 205.994 402.692C206.369 405.499 206.198 408.178 206.159 410.996L206.018 423.378C205.827 433.939 208.167 447.979 199.318 455.818C191.014 463.174 171.172 461.516 163.946 453.223C157.614 445.956 160.565 435.216 167.399 429.381C166.08 424.574 165.184 419.604 164.168 414.723L159.598 393.526C151.379 356.734 144.027 318.547 149.619 280.79C150.659 273.773 152.696 267.137 154.206 260.238C155.27 255.374 154.071 253.196 156.134 246.849C145.528 241.704 136.964 232.992 129.22 224.355C123.402 228.514 123.612 230.883 119.711 235.616C118.053 237.628 115.17 236.822 115.748 233.951C116.589 229.775 123.193 223.233 126.708 220.891C123.381 214.721 121.562 213.172 119.437 205.982C113.568 208.846 110.731 212.106 105.729 215.819C95.3254 215.534 116.31 202.268 118.37 201.227C114.91 180.077 118.538 170.63 125.523 152.255C125.188 148.128 124.13 143.961 123.416 139.883C121.291 127.758 117.267 70.0227 135.85 67.324C146.159 65.827 168.45 82.6463 176.219 89.4769C179.475 92.3398 182.252 95.9601 185.717 98.5335L186.004 98.7435C190.53 98.1132 194.961 96.2881 199.506 95.4849C216.346 92.5093 229.543 95.0897 245.495 100.243C254.247 87.9107 277.895 68.4679 293.062 67.1055ZM280.426 261.737L280.13 261.96C277.306 264.123 275.112 266.953 272.246 269.095C261.956 276.783 246.885 282.31 234.136 283.84C238.338 314.967 194.428 315.769 197.859 283.84L197.4 283.638C183.097 277.455 170.35 277.332 158.271 263.599C142.812 309.794 160.604 374.477 170.125 420.324C170.842 423.778 171.726 427.298 171.78 430.836C165.126 438.47 160.892 447.445 171.78 453.661C171.619 451.707 171.482 438.812 176.27 443.461C180.125 451.936 166.792 452.15 186.004 456.252C185.711 453.578 184.365 441.173 190.397 445.765C191.494 447.68 187.193 458.414 194.218 453.846C202.397 448.53 201.375 439.615 201.341 431.127C201.278 415.627 203.298 398.776 202.628 383.719C199.073 381.258 183.809 372.223 183.169 368.315C182.065 361.571 193.69 372.128 193.72 372.152C206.409 382.227 221.765 386.202 237.552 388.568C237.281 383.149 234.944 372.525 235.353 368.044C235.529 366.105 237.988 365.375 239.283 366.837C241.248 369.055 246.52 425.07 245.553 430.329C244.946 433.631 241.017 436.455 239.749 440.568C236.198 447.191 240.585 452.475 246.58 454.731C242.336 443.901 249.677 442.023 250.177 446.189C251.132 454.136 246.491 456.767 259.724 456.252C259.275 453.341 258.503 448.908 260.458 446.399C261.255 445.376 262.717 445.117 263.527 446.278C265.296 448.816 261.129 459.048 268.742 453.349C275.72 448.125 275.149 439.777 276.078 431.998C279.26 405.371 285.751 380.259 288.153 353.09C288.518 348.953 287.822 341.912 290.543 338.465C291.652 337.916 293.161 338.665 293.593 339.792C295.018 343.517 289.383 380.648 287.494 390.456C296.984 387.896 305.79 381.31 311.387 373.29C314.462 368.884 317.6 372.017 315.245 375.849C309.661 384.937 299.052 391.12 289.436 395.037C291.285 400.634 292.772 406.402 295.245 411.766C297.221 416.053 303.06 421.473 300.504 426.519C297.548 432.353 285.735 441.619 299.412 448.497C299.325 446.973 299.436 433.939 303.537 439.107C307.293 443.841 296.454 450.43 312.741 450.253C312.889 447.878 312.573 441.539 314.477 439.961C319.621 435.695 316.484 448.416 318.298 449.46C323.98 449.623 328.514 442.012 328.632 437.106C328.767 431.535 325.535 426.484 326.506 420.864C327.289 416.329 330.168 412.34 332.128 408.253C353.07 364.568 349.852 310.312 306.059 282.997C297.158 277.445 290.837 274.184 284.022 265.973C282.907 264.63 281.759 262.834 280.426 261.737ZM130.079 81.5287C140.272 86.1863 171.323 119.637 159.054 119.481C150.355 126.27 135.321 141.568 130.896 152.255C130.166 155.555 127.95 158.141 126.779 161.252C122.028 173.875 120.479 186.353 122.357 199.716C124.649 199.099 131.197 197.109 133.291 198.754C138.35 202.73 124.541 203.919 123.787 204.115C125.335 209.163 127.4 214.198 130.896 218.222C132.771 216.788 139.69 212.514 140.554 217.161C139.981 219.929 135.182 220.63 133.083 221.929C155.24 246.084 177.839 255.598 211.186 257.001C241.875 258.292 279.366 249.079 297.374 221.929C287.115 219.078 291.06 213.11 299.412 218.222C301.888 213.601 304.087 209.035 305.913 204.115C302.91 202.736 296.5 202.067 295.281 199.574C295.604 194.969 304.767 198.602 307.015 199.716C308.796 186.954 308.874 176.101 304.981 163.623C303.83 159.933 301.195 156.163 301.207 152.255C296.342 144.011 281.318 123.728 272.103 119.481C268.548 117.963 268.351 116.303 270.489 113.234C279.155 100.794 288.374 89.876 301.207 81.5287C298.811 73.924 296.663 69.7039 288.403 72.7658C276.804 77.066 266.377 85.3714 257.413 93.7434C242.406 107.759 252.701 106.623 233.67 101.414C221.103 97.9735 208.337 97.8655 195.674 101.084C179.537 105.186 186.37 104.683 174.382 93.9702C165.14 85.711 154.492 77.9169 142.873 73.3868C134.192 70.002 132.724 72.8654 130.079 81.5287ZM382.197 268.08C375.559 269.229 369.528 274.437 370.76 281.72C371.533 286.287 374.946 289.899 377.036 293.894C388.899 316.572 375.824 348.187 349.921 352.963L349.564 353.028C349.611 361.368 349.094 369.93 347.325 378.099C352.188 377.918 356.851 377.461 361.597 376.344C428.361 357.107 410.267 263.529 382.197 268.08ZM207.708 385.834C207.699 388.612 207.599 391.428 207.708 394.203C209.491 397.782 223.38 421.561 222.71 423.702C221.999 425.976 202.059 436.563 218.584 445.68C217.989 441.867 219.738 431.69 224.784 434.419C226.516 436.963 224.013 438.316 223.383 440.568C221.417 449.535 228.194 447.17 234.136 447.229C233.487 435.43 239.519 434.981 240.679 429.44C241.656 424.774 239.47 401.023 238.444 393.311C226.555 392.044 218.869 390.091 207.708 385.834Z"/>
	<path fill="#FF7979" transform="scale(0.5 0.5)" d="M215.08 275.052C229.816 272.556 238.513 297.257 218.584 302.701C199.957 304.861 194.929 278.601 215.08 275.052Z"/>
	<path fill="#FEC4B5" transform="scale(0.5 0.5)" d="M302.747 85.9719C305.604 102.542 305.8 135.571 301.207 152.255C296.342 144.011 281.318 123.728 272.103 119.481C280.06 106.911 289.615 93.5852 302.747 85.9719Z"/>
	<path fill="#FEC4B5" transform="scale(0.5 0.5)" d="M129.22 85.9719C142.922 95.646 149.992 105.74 159.054 119.481C150.355 126.27 135.321 141.568 130.896 152.255C125.298 140.986 123.435 97.7745 129.22 85.9719Z"/>
	<path fill="#FF7979" transform="scale(0.5 0.5)" d="M276.714 246.849C277.273 247.535 277.456 248.677 277.67 249.525C282.258 267.659 244.187 276.891 232.569 279.649C224.1 268.023 208.041 266.398 200.279 279.649L199.683 279.399C188.839 274.741 180.977 274.602 169.464 267.223C162.105 262.191 157.375 258.614 160.096 249.195C189.978 263.833 227.223 266.04 258.622 255.161C265.008 252.949 270.695 249.84 276.714 246.849Z"/>
	<path fill="#FF7979" transform="scale(0.5 0.5)" d="M212.742 204.115C209.888 203.409 206.314 199.707 204.806 197.239C200.109 189.551 220.984 191.466 224.012 192.406C233.46 195.338 217.798 203.656 217.446 204.681L217.332 204.362C216.339 203.63 213.978 204.024 212.742 204.115Z"/>
	<path fill="#FEC4B5" transform="scale(0.5 0.5)" d="M153.254 194.859C165.403 193.5 178.829 206.275 166.135 210.703C153.594 211.636 141.55 199.471 153.254 194.859Z"/>
	<path fill="#363636" transform="scale(0.5 0.5)" d="M212.742 204.115C213.978 204.024 216.339 203.63 217.332 204.362L217.446 204.681C217.636 206.711 217.355 209.071 218.321 210.929C221.757 217.536 233.035 216.986 237.165 211.537C238.264 210.087 238.718 207.183 240.544 206.433C243.487 205.224 243.582 210.037 242.591 211.653C235.585 223.068 225.135 221.872 215.08 215.357C207.676 218.557 202.718 223.359 194.392 218.184C190.48 215.752 183.661 206.435 189.521 206.635C191.832 207.836 192.581 210.622 194.294 212.47C200.456 219.119 213.046 216.749 212.742 204.115Z"/>
	<path fill="#FEC4B5" transform="scale(0.5 0.5)" d="M276.714 194.859C293.64 194.036 286.927 209.318 269.671 212.305C252.391 213.514 257.908 196.932 276.714 194.859Z"/>
	<path fill="#363636" transform="scale(0.5 0.5)" d="M174.161 158.829C185.83 157.116 195.303 168.151 193.627 179.353C193.413 180.779 192.319 184.056 190.304 183.343C187.115 182.216 189.406 178.365 189.297 176.12C188.79 165.657 178.132 159.436 169.464 165.543C171.616 165.243 173.407 165.024 175.558 165.543C187.542 170.272 186.808 185.702 174.925 188.215C157.683 191.862 153.204 162.505 174.161 158.829Z"/>
	<path fill="#363636" transform="scale(0.5 0.5)" d="M254.004 158.829C265.264 157.987 274.331 166.237 273.003 178.038C272.872 179.2 271.619 184.658 269.605 183.675C265.472 181.658 273.162 169.748 261.948 164.492C258.34 162.801 254.957 163.217 251.381 164.576C253.734 164.897 255.682 165.29 257.829 166.329C272.039 176.458 258.921 194.719 245.981 186.904C234.396 179.907 239.407 161.994 254.004 158.829Z"/>
</svg>
