<?xml version="1.0" encoding="utf-8" ?>
<svg xmlns="http://www.w3.org/2000/svg" xmlns:xlink="http://www.w3.org/1999/xlink" width="256" height="256">
	<path fill="#4D2C20" transform="scale(0.5 0.5)" d="M139.16 60.3635C161.283 60.4149 185.744 87.0934 201.666 101.877C231.936 88.6211 272.353 90.3269 302.563 101.877C313.246 88.8196 349.688 55.8919 369.091 61.7076C396.35 69.8781 385.887 143.258 377.972 168.315C387.103 181.327 393.057 208.431 395.484 223.736C407.094 227.947 428.357 238.536 435.145 249.778C437.374 253.47 433.918 255.931 431.093 253.007C420.6 242.147 412.289 234.902 397.065 229.848L396.74 229.743C396.295 235.676 396.745 241.891 396.74 247.854C408.593 255.767 431.983 279.656 423.774 282.371C419.829 283.676 412.65 263.287 396.74 254.572C394.498 259.256 393.563 266.707 392.022 272.036C389.845 279.565 386.313 286.21 382.751 293.133C412.277 283.413 423.326 333.752 423.269 354.128C423.198 379.839 411.943 391.214 395.484 407.499C393.598 408.032 386.875 413.017 384.294 414.386C372.443 420.673 360.303 422.865 347.143 424.271C340.653 439.67 322.123 441.991 307.407 439.172C303.38 442.446 299.831 444.934 294.766 446.287C280.244 450.166 260.309 448.94 255.812 431.754L249.915 431.754C247.822 437.908 245.193 442.625 238.805 445.351C230.545 448.875 215.066 448.769 206.997 444.778C203.732 443.163 201.189 440.394 197.702 439.172C186.012 439.342 170.85 442.522 163.294 430.56C158.801 423.446 160.069 413.333 167.458 408.736C166.381 405.745 164.876 402.926 163.617 400.009C154.813 379.597 157.205 353.582 168.559 334.726C137.423 320.414 114.554 289.177 110.158 255.305C104.573 260.279 98.94 265.487 94.5053 271.55C93.0684 273.514 89.1576 281.904 86.5144 281.921C76.6711 281.984 98.7387 256.917 109.244 249.545C109.089 243.628 109.239 237.666 109.244 231.745C101.859 234.035 91.4996 241.047 85.8386 246.366C84.8664 247.28 76.3524 258.116 74.8948 252.383C73.2279 245.826 103.546 227.26 110.158 225.871C110.946 207.282 118.48 186.99 126.463 170.349C123.248 156.899 120.027 143.746 118.554 129.944C116.719 112.748 113.873 63.0758 139.16 60.3635ZM115.671 223.736C117.604 222.799 131.097 216.165 130.333 222.786C128.754 225.29 117.955 227.892 114.728 228.726C114.879 234.484 114.665 240.242 114.728 246L115.046 245.85C117.433 244.713 125.958 238.882 128.217 239.899C135.708 243.271 116.315 250.848 114.728 251.557C116.591 258.43 118.142 266.028 120.012 273.206L120.923 272.535C121.54 272.688 121.509 272.765 121.919 273.206C124.356 275.745 126.517 278.537 128.979 281.053C169.168 322.126 229.85 336.269 285.619 326.685C324.133 320.066 365.864 300.154 383.03 263.001C385.106 258.507 386.354 253.582 389.324 249.545C386.294 247.972 376.24 244.774 375.233 242.292C374.532 240.562 376.62 239.673 378.004 239.53C380.951 239.228 387.989 243.116 390.756 244.549C391.004 238.722 390.093 232.9 390.756 227.081C388.716 226.588 375.283 223.575 374.582 223.083C369.62 219.607 377.778 216.322 389.324 221.966C388.918 214.859 387.197 207.875 385.263 201.053C368.027 140.219 310.169 94.2048 245.952 97.9928C183.711 101.664 138.93 141.114 120.855 199.11C118.393 207.009 116.173 215.443 115.671 223.736ZM173.035 337.226C168.397 346.083 165.476 355.57 164.021 365.466L165.187 365.466L165.717 365.432C167.444 368.805 173.361 386.181 175.129 387.145L175.273 385.424C175.14 383.612 174.362 379.853 175.507 378.375C180.479 371.954 181.42 389.942 181.573 390.684C183.187 398.517 186.356 408.469 190.112 415.484C195.174 415.988 206.893 437.099 232.142 433.365C236.729 432.686 240.533 430.563 244.886 429.286C247.602 410.382 231.53 414.803 232.285 409.384C232.994 404.295 251.991 409.035 249.915 426.101C251.652 426.112 253.4 426.161 255.136 426.101C255.972 418.946 256.736 414.59 262.643 409.92C264.659 408.325 270.228 403.91 272.291 407.543C275.043 412.389 257.746 413.015 260.992 429.286C262.683 429.462 265.166 431.063 266.845 431.689C279.935 436.567 296.755 432.638 306.901 423.254C309.963 420.423 312.093 416.161 316.077 414.473C316.273 412.094 320.732 403.652 321.913 400.492C323.47 396.325 328.836 368.894 333.025 376.21C334.961 379.592 330.02 393.312 328.911 397.277C331.411 397.782 334.646 398.884 336.973 399.908C339.158 393.227 341.902 386.887 342.876 379.855C344.63 367.196 339.542 347.358 331.847 337.226C281.96 359.592 223.142 357.819 173.035 337.226ZM130.339 163.448C133.454 158.387 137.599 153.17 140.402 148.352C150.917 134.392 163.258 122.996 178.04 113.622C183.929 110.014 189.965 107.191 196.067 104.037C187.573 93.9676 147.701 56.3437 133.472 68.2984C117.632 81.6077 122.31 143.047 130.339 163.448ZM307.407 104.037C314.431 106.809 320.824 110.488 327.238 114.439C343.987 126.94 354.305 134.03 367.512 152.08C370.015 155.149 372.203 158.833 373.999 162.346C379.527 144.351 391.407 67.3285 364.69 66.3782C346.09 65.7167 320.998 91.1623 307.407 104.037ZM341.664 402.697C340.919 404.393 340.154 406 339.049 407.499C341.247 408.985 343.071 410.755 344.694 412.855C347.334 410.091 354.126 409.901 357.667 409.137C405.228 398.875 416.662 356.39 404.826 313.176C404.163 310.752 401.899 307.321 402.89 304.931C398.798 298.854 390.183 294.162 383.342 298.94C369.731 308.447 397.526 341.02 384.139 371.379C376.199 389.385 360.248 398.52 341.664 402.697ZM373.999 304.931C364.589 317.356 351.042 327.953 336.973 334.726C348.301 356.033 352.059 371.09 344.694 394.332C343.717 397.869 345.16 396.383 348.275 395.451C369.919 388.97 383.852 370.838 382.727 347.839C382.116 335.339 377.421 327.262 374.797 315.861C373.927 312.08 374.446 308.621 373.999 304.931ZM324.287 408.736C321.6 415.218 318.447 421.75 314.819 427.757L316.077 427.757C330.736 427.729 329.727 426.404 341.37 422.314L341.664 422.214C341.328 411.314 333.17 410.503 324.287 408.736ZM164.021 370.558C162.17 381.223 167.755 396.359 172.056 405.748C174.523 404.805 177.008 404.379 179.6 403.938C177.81 397.801 176.193 391.766 175.273 385.424L175.129 387.145C173.361 386.181 167.444 368.805 165.717 365.432L165.187 365.466L164.021 365.466C164.046 367.16 164.085 368.865 164.021 370.558ZM166.614 419.05C168.293 423.613 184.987 426.519 188.686 425.236C186.166 420.025 183.795 414.841 181.675 409.455C174.867 410.224 168.688 411.713 166.614 419.05ZM120.012 273.206C120.856 275.723 121.669 278.343 122.889 280.705C123.927 278.789 121.838 275.449 121.919 273.206C121.509 272.765 121.54 272.688 120.923 272.535L120.012 273.206Z"/>
	<path fill="#F2DFD7" transform="scale(0.5 0.5)" d="M326.26 403.938C327.276 401.755 328.1 399.54 328.911 397.277C331.411 397.782 334.646 398.884 336.973 399.908C335.863 401.805 334.896 403.792 333.893 405.748C331.383 404.777 328.917 404.335 326.26 403.938Z"/>
	<path fill="#F2DFD7" transform="scale(0.5 0.5)" d="M341.664 422.214C337.706 433.367 322.085 436.542 311.726 434.449C308.857 434.42 313.748 429.369 314.819 427.757L316.077 427.757C330.736 427.729 329.727 426.404 341.37 422.314L341.664 422.214Z"/>
	<path fill="#F2DFD7" transform="scale(0.5 0.5)" d="M166.614 419.05C168.293 423.613 184.987 426.519 188.686 425.236C190.325 427.254 192.561 431.18 194.037 433.483C183.913 434.823 163.014 435.207 166.614 419.05Z"/>
	<path fill="#F2DFD7" transform="scale(0.5 0.5)" d="M164.021 370.558C164.085 368.865 164.046 367.16 164.021 365.466L165.187 365.466L165.717 365.432C167.444 368.805 173.361 386.181 175.129 387.145L175.273 385.424C176.193 391.766 177.81 397.801 179.6 403.938C177.008 404.379 174.523 404.805 172.056 405.748C167.755 396.359 162.17 381.223 164.021 370.558ZM164.021 370.558C165.815 369.245 165.316 367.475 165.187 365.466L164.021 365.466C164.046 367.16 164.085 368.865 164.021 370.558Z"/>
	<path fill="#F2DFD7" transform="scale(0.5 0.5)" d="M260.992 429.286C262.683 429.462 265.166 431.063 266.845 431.689C279.935 436.567 296.755 432.638 306.901 423.254C309.963 420.423 312.093 416.161 316.077 414.473C311.534 423.422 304.191 437.511 294.783 440.614C284.003 444.168 262.653 444.178 260.992 429.286Z"/>
	<path fill="#F2DFD7" transform="scale(0.5 0.5)" d="M190.112 415.484C195.174 415.988 206.893 437.099 232.142 433.365C236.729 432.686 240.533 430.563 244.886 429.286C243.075 444.581 220.64 444.329 210.033 439.906C200.021 435.73 194.05 425.057 190.112 415.484Z"/>
	<path fill="#F2DFD7" transform="scale(0.5 0.5)" d="M402.89 304.931C410.829 312.216 417.275 339.217 417.763 350.115C419.479 388.395 384.02 418.772 347.143 419.05C346.452 416.922 345.794 414.818 344.694 412.855C347.334 410.091 354.126 409.901 357.667 409.137C405.228 398.875 416.662 356.39 404.826 313.176C404.163 310.752 401.899 307.321 402.89 304.931Z"/>
	<path fill="#FE9C92" transform="scale(0.5 0.5)" d="M327.238 114.439L327.453 114.146C334.89 103.838 346.791 86.1058 359.719 83.7486C377.158 80.5689 369.793 145.302 367.512 152.08C354.305 134.03 343.987 126.94 327.238 114.439Z"/>
	<path fill="#FE9C92" transform="scale(0.5 0.5)" d="M140.402 148.352C136.41 140.394 131.061 89.8532 140.652 84.4267C148.174 80.1704 172.79 105.054 178.04 113.622C163.258 122.996 150.917 134.392 140.402 148.352Z"/>
	<path fill="#F2DFD7" transform="scale(0.5 0.5)" d="M389.324 249.545C391.538 250.87 390.121 254.21 389.774 256.344C382.388 301.877 346.278 330.801 302.62 341.43C244.886 355.486 158.525 347.155 126.748 288.75C125.365 286.208 123.849 283.431 122.889 280.705C123.927 278.789 121.838 275.449 121.919 273.206C124.356 275.745 126.517 278.537 128.979 281.053C169.168 322.126 229.85 336.269 285.619 326.685C324.133 320.066 365.864 300.154 383.03 263.001C385.106 258.507 386.354 253.582 389.324 249.545Z"/>
	<path fill="#4D2C20" transform="scale(0.5 0.5)" d="M215.29 184.97C223.442 185.084 213.254 193.956 211.782 195.297C198.817 207.108 183.363 214.877 166.614 219.734C163.301 219.616 162.981 216.115 165.907 214.636C168.328 213.411 171.463 212.919 174.069 212.099C186.073 208.324 197.514 200.964 206.889 192.749C209.664 190.318 212.193 186.922 215.29 184.97Z"/>
	<path fill="#4D2C20" transform="scale(0.5 0.5)" d="M288.469 184.97C291.871 184.946 294.555 189.476 296.813 191.615C306.452 200.748 319.004 207.724 331.586 211.805C334.351 212.702 348.705 214.118 343.247 219.734C328.233 220.691 299.915 202.237 289.996 192.164C287.813 189.947 284.872 187.288 288.469 184.97Z"/>
	<path fill="#4D2C20" transform="scale(0.5 0.5)" d="M209.862 203.666C212.409 205.709 214.572 210.461 215.451 213.551C220.842 232.511 201.251 247.806 184.572 237.998C178.738 234.059 174.854 228.197 175.273 220.917C189.502 218.681 199.632 213.863 209.862 203.666ZM197.702 216.796C190.818 218.332 191.654 225.859 198.15 225.871C205.268 224.009 203.553 215.355 197.702 216.796Z"/>
	<path fill="#4D2C20" transform="scale(0.5 0.5)" d="M295.093 203.666C297.183 204.592 299.01 207.522 300.867 208.975C309.216 215.508 318.585 219.69 328.911 221.966C328.483 229.22 324.937 234.744 318.825 238.762C294.471 252.063 276.16 216.356 295.093 203.666ZM307.407 216.796C302.264 219.95 304.23 227.157 310.208 225.871C315.692 222.941 314.289 215.937 307.407 216.796Z"/>
	<path fill="#4D2C20" transform="scale(0.5 0.5)" d="M248.232 230.646C254.699 230.287 262.522 230.596 268.056 234.428C280.135 242.792 266.601 253.384 255.136 254.572C255.201 255.697 255.166 256.81 255.136 257.935C274.039 260.517 292.763 269.483 296.323 290.465C296.991 294.403 293.12 297.936 289.722 287.317C285.125 272.953 269.677 263.913 255.136 263.506C239.062 261.078 221.244 270.877 214.692 285.662C213.516 288.318 213.149 293.617 210.238 294.952C206.002 295.179 207.415 290.4 208.165 288.099C214.309 269.25 230.586 259.63 249.915 257.935L249.915 254.572C229.806 252.244 225.195 233.328 248.232 230.646Z"/>
	<path fill="#FE9C92" transform="scale(0.5 0.5)" d="M249.915 236.229C269.124 234.358 274.25 246.454 255.812 249.545C239.666 251.259 228.829 236.952 249.915 236.229Z"/>
</svg>
