<?xml version="1.0" encoding="utf-8" ?>
<svg xmlns="http://www.w3.org/2000/svg" xmlns:xlink="http://www.w3.org/1999/xlink" width="256" height="256">
	<path fill="#FFB9BA" transform="scale(0.5 0.5)" d="M106.076 207.557C112.637 208.516 112.099 216.39 106.076 218.094C98.9832 217.526 99.7359 208.779 106.076 207.557Z"/>
	<path fill="#FFB9BA" transform="scale(0.5 0.5)" d="M83.8345 144.361C92.029 143.871 99.0319 147.967 102.894 155.332C109.312 167.57 100.809 173.255 97.8858 183.104C95.6649 190.587 98.7947 193.362 101.967 199.3C97.371 209.323 90.9778 194.495 91.1374 186.737C91.2804 179.785 93.5279 176.076 96.9865 170.243C100.84 162.731 97.563 154.657 89.7852 151.493C79.5953 147.347 65.9991 157.582 66.4622 169.456C66.8612 179.686 60.8999 176.026 60.2706 172.134C57.8852 157.382 70.1932 146.188 83.8345 144.361Z"/>
	<path fill="#5A5E74" transform="scale(0.5 0.5)" d="M370.18 45.8486C380.889 44.2608 389.063 50.1591 393.602 59.6402C407.823 89.3491 411.168 132.94 399.847 164.644C405.684 184.745 407.494 196.561 404.842 218.094C411.698 235.325 416.912 240.937 414.512 262.365C424.939 264.124 438.32 270.053 447.428 275.56C457.707 281.774 452.337 285.38 448.725 283.171C435.792 275.263 429.219 272.425 414.512 267.737C411.51 273.918 409.189 280.828 405.976 287.479C414.945 291.479 435.125 310.021 438.043 317.507C439.246 320.593 436.201 323.294 433.001 319.223C422.199 305.479 417.281 301.398 402.624 291.9C386.391 314.327 360.258 327.797 334.238 335.498C340.042 342.707 344.779 349.487 347.287 358.54C370.16 352.182 384.977 370.611 385.266 392.691C385.654 422.234 361.38 445.888 332.646 448.656C329.215 448.987 325.657 448.722 322.206 448.75C312.521 465.021 300.011 464.718 282.676 464.71C272.93 464.706 263.427 466.26 256.47 457.77C253.665 460.441 250.972 462.609 247.215 463.74C242.268 465.229 217.097 465.092 211.523 464.137C196.045 461.485 191.022 448.628 186.93 435.059C182.487 421.054 177.699 405.382 178.256 390.601C154.438 372.103 156.941 341.581 166.146 316.086C155.592 310.565 143.954 299.346 137.013 289.72C124.883 296.118 112.265 304.306 104.398 315.84C95.4512 328.957 93.4283 320.351 102.089 309.999C111.102 299.226 122.139 291.59 134.291 284.767C130.096 277.478 128.276 273.004 126.096 264.865C112.293 268.747 103.043 269.004 89.6248 277.809C87.6991 279.072 82.8014 284.31 80.2429 282.795C71.2744 277.485 106.526 262.318 125.32 259.451C123.515 248.37 126.335 236.485 131.491 226.636C133.001 223.752 135.258 221.24 136.243 218.094C135.414 205.437 135.51 192.791 137.869 180.29C140.746 165.045 143.399 171.692 139.367 155.316C134.252 134.54 135.379 108.023 139.628 87.3535C143.678 67.6508 151.535 41.7894 176.114 47.2742C195.552 51.6119 223.285 73.0352 234.43 90.4954C252.944 82.8715 289.765 84.9726 307.973 90.4954C322.515 71.6266 346.384 50.9927 370.18 45.8486ZM313.612 91.8469C316.226 92.8558 320.833 93.2073 322.038 96.0531C324.816 102.613 311.677 97.1975 309.9 96.6414C285.366 88.9628 252.63 88.7381 228.117 97.4456C226.148 98.1451 221.905 100.248 220.097 98.8916C215.037 95.0967 226.843 92.0975 228.512 91.1639C214.015 74.8633 191.652 52.8382 169.357 51.5202C148.299 50.2755 142.121 99.786 141.578 114.22C140.892 132.444 143.118 141.127 145.372 157.752C147.195 154.664 148.513 151.299 150.311 148.234C145.341 135.661 147.954 79.7517 161.635 70.2677C168.843 64.0252 190.279 87.0376 194.572 92.3017C205.529 105.739 206.355 104.468 194.248 111.711C157.822 133.499 140.685 167.467 141.394 208.723C141.637 222.877 144.386 215.914 137.334 227.394C131.771 236.452 129.601 247.731 130.509 258.259L130.969 258.314C137.781 259.077 160.87 257.076 163.95 261.52C168.333 267.842 145.977 263.977 144.542 263.958C140.217 263.9 135.9 264.023 131.645 264.865C132.841 268.634 135.426 273.664 136.243 276.834C138.218 276.688 140.941 279.821 141.446 281.487C145.467 280.141 161.58 274.269 164.553 275.903C173.903 281.044 144.954 284.124 142.78 287.74L143.024 288.562C144.396 288.019 145.651 287.263 146.931 286.535C153.065 294.579 164.625 298.099 172.578 303.973C177.549 297.152 185.093 286.838 193.858 285.464C206.913 283.418 219.206 292.806 221.014 305.875C221.728 311.03 219.928 315.125 217.902 319.757C222.428 319.529 228.404 321.337 233.044 321.94C272.393 327.054 320.761 321.123 354.263 299.827C362.127 294.828 369.189 287.051 375.971 282.928L376.315 282.723C370.901 280.031 372.957 275.619 381.989 278.043C385.976 273.741 392.13 270.445 394.359 264.865C389.566 264.544 372.988 266.525 377.65 260.837C379.654 258.392 394.854 259.605 398.551 259.451L399.191 259.381C400.148 255.298 402.155 251.363 403.248 247.264C404.372 243.05 404.712 238.627 405.896 234.44L405.976 234.167C404.768 228.288 400.679 223.603 398.551 218.094C401.981 211.223 400.541 195.51 399.847 187.328C399.437 185.362 398.99 183.405 398.551 181.446C391.978 150.528 372.173 125.508 345.006 110.028C335.905 104.842 338.127 104.799 344.627 96.669C352.216 87.1762 366.578 71.8955 378.424 68.3755C381.476 67.4685 383.903 70.1828 381.989 72.7959C389.862 81.061 389.943 91.0271 393.405 100.48C394.499 101.782 394.227 103.777 394.901 105.321L395.055 104.99L394.938 105.251L395.182 104.646C399.976 101.972 398.62 104.491 398.552 99.6123L398.551 99.369C398.848 96.1801 397.814 92.6654 397.161 89.5565C394.761 78.1294 390.199 52.355 375.123 51.2145C355.179 49.7057 326.81 76.9489 313.612 91.8469ZM211.093 338.835C210.816 340.753 210.865 342.454 211.093 344.38C244.906 366.153 217.272 405.208 189.634 395.866C190.822 413.59 196.874 442.995 215.429 448.757C225.574 451.908 244.045 450.986 254.312 445.991C252.152 431.552 236.682 433.749 235.808 430.264C235.021 427.125 238.883 426.998 240.882 427.157C247.626 427.696 252.189 431.699 256.47 436.568C259.788 432.15 272.165 423.557 276.672 427.771C283.87 434.499 260.32 428.713 258.679 445.991C260.009 446.389 261.311 447.242 262.564 447.853C268.277 450.636 294.916 451.132 301.305 448.862C327.808 439.445 313.917 389.973 332.683 383.318C335.09 382.23 336.222 382.427 337.741 384.632C337.831 387.732 342.116 391.522 344.019 394.36C348.117 372.742 343.155 352.348 327.553 336.882C286.295 348.913 251.689 344.74 211.093 338.835ZM172.578 376.022C172.762 375.699 172.668 375.891 172.845 375.368L172.993 374.922C174.718 375.129 180.735 380.548 187.46 381.38C200.245 382.96 212.423 373.978 213.849 360.997C214.102 358.702 213.932 356.397 214.189 354.125L214.219 353.88C212.232 351.449 210.167 351.235 207.477 350.04L207.274 349.785C199.144 339.416 214.472 319.763 215.564 309.628C217.036 295.969 199.842 284.92 188.569 293.938C167.226 311.013 156.974 352.295 172.578 376.022Z"/>
	<path fill="#CDD9DF" transform="scale(0.5 0.5)" d="M136.243 276.834C138.218 276.688 140.941 279.821 141.446 281.487C140.539 281.869 139.649 282.309 138.756 282.723C137.794 280.837 137.055 278.791 136.243 276.834Z"/>
	<path fill="#CDD9DF" transform="scale(0.5 0.5)" d="M337.741 384.632C337.831 387.732 342.116 391.522 344.019 394.36C343.312 402.666 338.231 411.038 332.683 417.011C332.716 407.678 336.675 394.611 337.741 384.632Z"/>
	<path fill="#CDD9DF" transform="scale(0.5 0.5)" d="M405.976 234.167C409.566 240.021 410.078 254.385 409.756 261.362C407.573 261.087 399.986 260.594 398.551 259.451L399.191 259.381C400.148 255.298 402.155 251.363 403.248 247.264C404.372 243.05 404.712 238.627 405.896 234.44L405.976 234.167Z"/>
	<path fill="#CDD9DF" transform="scale(0.5 0.5)" d="M146.931 286.535C153.065 294.579 164.625 298.099 172.578 303.973C171.375 306.35 169.904 308.629 168.545 310.921C161.568 306.686 154.717 301.403 149.063 295.51C147.031 293.392 145.284 290.351 143.024 288.562C144.396 288.019 145.651 287.263 146.931 286.535Z"/>
	<path fill="#CDD9DF" transform="scale(0.5 0.5)" d="M398.551 99.369C405.419 120.152 398.419 138.52 397.53 157.752C395.784 155.209 394.436 152.786 393.405 149.872C396.621 136.556 395.253 113.703 393.405 100.48C394.499 101.782 394.227 103.777 394.901 105.321L395.055 104.99L394.938 105.251L395.182 104.646C399.976 101.972 398.62 104.491 398.552 99.6123L398.551 99.369Z"/>
	<path fill="#CDD9DF" transform="scale(0.5 0.5)" d="M394.359 264.865C398.927 265.629 403.656 265.818 408.174 266.823C406.519 273.276 403.527 278.641 401.238 284.767C394.88 282.223 388.505 280.121 381.989 278.043C385.976 273.741 392.13 270.445 394.359 264.865Z"/>
	<path fill="#CDD9DF" transform="scale(0.5 0.5)" d="M214.219 353.88C234.864 371.147 206.28 407.841 179.025 383.947C176.744 381.947 173.578 378.97 172.578 376.022C172.762 375.699 172.668 375.891 172.845 375.368L172.993 374.922C174.718 375.129 180.735 380.548 187.46 381.38C200.245 382.96 212.423 373.978 213.849 360.997C214.102 358.702 213.932 356.397 214.189 354.125L214.219 353.88Z"/>
	<path fill="#CDD9DF" transform="scale(0.5 0.5)" d="M183.804 394.36C185.814 394.744 187.702 395.176 189.634 395.866C190.822 413.59 196.874 442.995 215.429 448.757C225.574 451.908 244.045 450.986 254.312 445.991C254.125 461.242 240.875 459.093 229.668 459.112C224.602 459.121 219.369 459.403 214.327 458.973C195.643 457.38 192.744 435.512 188.858 421.183C186.494 412.469 182.937 403.529 183.804 394.36Z"/>
	<path fill="#CDD9DF" transform="scale(0.5 0.5)" d="M258.679 445.991C260.009 446.389 261.311 447.242 262.564 447.853C268.277 450.636 294.916 451.132 301.305 448.862C327.808 439.445 313.917 389.973 332.683 383.318C329.419 393.45 327.454 410.589 324.905 421.805C321.599 436.349 318.067 456.197 300.017 458.792C295.791 459.4 270.437 459.548 266.996 458.558C261.765 457.052 257.386 451.613 258.679 445.991Z"/>
	<path fill="#FFB9BA" transform="scale(0.5 0.5)" d="M150.311 148.234C145.341 135.661 147.954 79.7517 161.635 70.2677C161.979 75.1246 168.35 75.9944 171.814 78.3663C180.528 84.334 191.005 95.1147 196.434 104.206C172.438 115.816 164.836 129.248 150.311 148.234Z"/>
	<path fill="#FFB9BA" transform="scale(0.5 0.5)" d="M381.989 72.7959C389.862 81.061 389.943 91.0271 393.405 100.48C395.253 113.703 396.621 136.556 393.405 149.872C377.852 130.103 371.08 116.946 345.803 104.206C353.601 91.7149 368.853 78.7273 381.989 72.7959Z"/>
	<path fill="#CDD9DF" transform="scale(0.5 0.5)" d="M354.161 362.843C385.867 359.746 393.384 421.146 345.803 439.799C338.813 442.228 332.445 443.325 325.062 443.233C327.184 437.47 327.678 431.049 329.903 425.622C351.192 412.028 353.17 386.885 349.127 363.789C350.804 363.371 352.449 363.075 354.161 362.843Z"/>
	<path fill="#CDD9DF" transform="scale(0.5 0.5)" d="M376.315 282.723C382.649 282.856 391.921 286.718 397.53 289.72C393.057 294.467 389.294 299.518 384.262 303.774C344.214 337.649 273.547 344.717 222.481 335.411C219.191 334.812 215.735 334.358 212.522 333.428C213.989 328.861 215.682 324.013 217.902 319.757C222.428 319.529 228.404 321.337 233.044 321.94C272.393 327.054 320.761 321.123 354.263 299.827C362.127 294.828 369.189 287.051 375.971 282.928L376.315 282.723Z"/>
	<path fill="#CDD9DF" transform="scale(0.5 0.5)" d="M397.53 188.419C398.608 187.148 397.54 186.382 399.847 187.328C400.541 195.51 401.981 211.223 398.551 218.094C396.889 216.138 395.263 214.382 394.359 211.926C395.027 204.158 396.954 196.861 397.53 188.419Z"/>
	<path fill="#5A5E74" transform="scale(0.5 0.5)" d="M223.789 172.469C233.283 172.416 218.778 186.64 216.985 188.296C204.757 199.589 191.927 202.355 176.08 201.754C173.973 201.411 172.367 200.57 172.35 198.133C173.49 195.082 178.677 196.407 181.084 196.401C195.179 196.365 208.403 190.86 217.618 179.927C219.701 177.456 221.215 174.501 223.789 172.469Z"/>
	<path fill="#5A5E74" transform="scale(0.5 0.5)" d="M288.535 172.469C293.934 172.4 302.324 196.516 331.253 197.046C334.639 197.108 345.83 193.504 343.569 200.514C343.009 201.188 342.383 201.417 341.589 201.754C324.005 206.998 302.062 195.834 291.087 182.314C288.717 179.394 283.857 175.283 288.535 172.469Z"/>
	<path fill="#5A5E74" transform="scale(0.5 0.5)" d="M193.584 215.658C203.02 215.636 223.818 211.498 223.393 225.871C223.204 232.258 218.749 238.477 214.219 242.64C200.407 251.15 190.846 239.882 186.857 227.256C185.029 221.47 187.968 217.34 193.584 215.658Z"/>
	<path fill="#5A5E74" transform="scale(0.5 0.5)" d="M311.826 215.658L317.22 215.564C340.774 215.281 325.902 245.613 309.942 244.81C296.394 244.736 286.316 225.696 294.162 218.261C298.184 214.448 306.627 215.634 311.826 215.658Z"/>
	<path fill="#5A5E74" transform="scale(0.5 0.5)" d="M252.988 236.248C259.103 235.953 278.845 236.987 277.424 245.202C276.383 251.222 264.91 255.917 260.502 259.245L260.232 259.451C270.205 260.594 278.701 264.183 285.684 271.588C291.43 277.68 288.757 283.082 280.664 274.706C275.944 269.821 269.601 266.877 263.002 265.573C254.335 263.989 242.977 265.058 236.239 271.344C234.429 273.033 232.493 275.962 230.213 276.904C222.329 280.161 227.858 262.337 252.988 259.451C231.698 248.384 225.045 239.944 252.988 236.248Z"/>
	<path fill="#FFB9BA" transform="scale(0.5 0.5)" d="M252.988 242.005C259.033 240.98 265.606 242.494 271.164 244.81C267.545 248.352 263.134 250.956 258.679 253.294C252.221 255.721 244.669 248.86 240.393 244.81C244.538 242.663 248.367 242.178 252.988 242.005Z"/>
</svg>
