<?xml version="1.0" encoding="utf-8" ?>
<svg xmlns="http://www.w3.org/2000/svg" xmlns:xlink="http://www.w3.org/1999/xlink" width="256" height="256">
	<path fill="#363636" transform="scale(0.5 0.5)" d="M305.182 51.5219C310.949 51.0907 312.878 62.1027 314.015 66.1309C319.93 87.0915 320.011 106.564 315.746 127.818C322.566 146.867 328.136 154.975 323.596 177.724C326.492 178.821 335.806 181.762 335.281 185.887C332.974 189.874 325.809 183.441 322.227 181.756C320.66 188.087 318.225 192.842 315.746 198.716C317.724 200.02 327.083 208.61 320.817 209.35C318.483 208.439 315.294 203.833 313.337 201.921C308.589 209.364 301.396 215.541 294.529 220.973C295.402 221.724 296.228 222.53 297.045 223.34C338.78 264.724 380.303 335.091 380.548 396.237C380.632 396.203 380.715 396.17 380.798 396.136L381.212 395.961C393.176 390.971 398.572 377.378 400.216 365.407C405.21 329.062 380.154 318.945 365.716 294.535C348.869 266.052 360.926 228.295 381.081 204.854C389.002 195.64 403.138 181.581 415.743 180.693C426.053 179.966 434.955 187.406 435.485 197.867C436.35 214.946 423.453 218.659 413.938 229.173C403.111 241.137 391.956 259.945 399.497 275.997C402.89 283.217 406.823 286.888 412.503 292.226C439.982 318.05 447.148 367.005 426.011 398.533C423.283 402.602 419.987 406.198 416.707 409.819C403.93 423.509 385.041 431.642 366.926 435.163C368.303 442.244 366.904 448.867 360.031 452.668C352.204 456.995 291.39 459.207 278.558 455.545C269.129 458.632 245.459 460.964 236.476 454.225C229.009 457.999 200.294 458.87 192.172 455.264C178.117 449.024 181.311 425.25 197.65 418.907C198.879 400.129 196.157 392.307 189.137 375.793C178.292 350.283 168.047 327.303 165.531 299.118C162.224 301.522 158.921 304.049 155.349 306.046C129.015 320.767 94.6192 309.196 80.4955 283.173C65.4091 255.377 74.9286 220.562 103.161 205.594C118.165 197.639 132.471 198.145 148.261 202.961C143.732 197.383 139.565 189.862 137.564 182.993C134.923 183.731 121.951 189.873 124.874 183.501C125.717 181.665 134.172 179.133 136.275 178.604C132.41 160.642 133.897 141.218 145.519 126.179C138.452 110.449 142.196 75.9481 148.028 60.4719C149.385 56.8703 150.545 51.8242 155.278 52.0373C164.685 52.461 192.328 73.8675 200.945 82.9299C216.345 76.532 242.541 78.3776 258.947 83.6297C267.686 72.3763 291.534 56.4079 305.182 51.5219ZM291.976 224.507C286.061 237.811 272.044 246.288 258.869 251.367C233.541 261.131 214.267 259.401 190.499 248.099C187.669 246.388 184.801 244.616 181.829 243.167C183.792 247.672 184.465 252.678 184.48 257.576C185.29 267.931 181.419 277.28 176.662 286.225C175.597 287.599 169.509 294.987 169.628 295.965C170.993 308.326 173.47 319.974 176.662 331.982C178.359 328.788 178.29 327.134 177.835 323.348L178.128 323.219C179.696 324.626 182.416 331.423 183.976 333.904C190.057 343.576 193.777 348.681 200.945 357.111C204.257 352.058 208.033 358.747 212.188 361.772C222.729 369.446 235.947 374.516 248.912 375.94L248.752 375.459C247.179 370.617 246.825 365.232 245.775 360.234C245.448 358.678 239.67 342.943 246.59 346.513C248.039 348.042 248.533 351.603 249.05 353.671C252.87 368.965 256.386 408.762 250.988 424.101C239.243 427.105 231.965 433.391 236.476 446.25C237.825 445.487 239.156 445.478 240.293 446.754C243.981 448.711 247.183 448.654 251.247 448.419C266.168 447.557 273.358 447.438 282.64 434.426C284.871 431.298 288.266 423.93 291.976 424.101C292.838 420.073 294.677 416.279 296.036 412.399C300.519 399.599 304.997 386.656 307.676 373.335C308.207 370.691 308.237 361.117 312.354 361.435C317.144 364.383 305.276 399.537 303.574 404.678C301.784 410.082 299.518 415.352 297.991 420.838C301.018 420.187 304.052 419.502 307.152 419.329C322.34 418.478 327.563 426.385 322.31 427.412C318.937 428.071 311.67 419.587 295.934 426.826C292.909 431.213 290.23 440.948 287.01 446.754C288.024 446.567 289.049 446.336 290.076 446.25C307.642 444.747 326.017 448.193 343.619 440.395C348.915 438.048 352.446 433.507 357.758 431.183C359.307 428.789 361.475 426.855 363.228 424.61C381.676 400.975 377.218 383.929 369.988 356.222C356.372 304.036 329.084 262.956 291.976 224.507ZM155.011 56.222C144.2 76.3122 145.141 100.087 148.261 121.997C150.331 120.007 152.918 117.832 154.268 115.286C152.8 105.39 156.441 80.7194 158.776 71.4153L158.696 71.1214C155.083 57.4122 183.478 84.9796 184.151 87.8574C183.563 90.0261 164.993 109.965 162.445 112.776C144.023 133.1 133.894 147.671 140.393 177.724C145.776 175.472 159.51 172.015 163.937 174.258C165.09 174.842 164.999 175.985 164.209 176.91C163.279 177.998 146.921 179.806 141.753 181.756C143.433 186.486 145.58 190.934 148.261 195.188C150.771 193.048 159.995 185.926 163.546 186.751C171.243 188.541 152.707 196.852 150.825 198.716C154.732 204.783 164.767 214.708 170.889 218.711L171.309 218.459C171.873 218.874 172.334 219.185 173.01 219.411C172.774 218.807 172.6 217.826 173.106 217.317C190.13 224.718 212.023 232.303 230.992 230.523C251.853 228.564 276.037 214.126 289.633 198.023C291.631 195.656 293.259 192.479 295.934 190.806C292.403 187.388 296.073 185.789 301.42 188.463C302.041 185.53 304.29 183.442 305.732 180.873L307.017 178.604C305.757 178.253 292.537 178.504 296.353 174.449C298.114 172.578 306.733 173.587 309.544 173.524C310.077 171.963 309.928 170.532 311.242 169.284L311.56 169.634C321.648 166.067 314.996 162.78 319.451 156.96C319.996 157.885 319.669 158.96 320.273 159.993C320.414 151.606 316.919 139.193 312.231 132.234C309.445 123.38 284.705 96.6613 277.563 88.6044C280.095 82.1917 292.574 71.9329 298.414 69.1456C300.556 68.1233 301.433 69.6078 302.255 71.4153L302.319 71.7293C302.645 73.2749 303.32 74.8369 303.793 76.3561C308.576 91.7304 306.227 100.829 307.017 115.286C308.325 118.016 310.323 120.503 312.231 122.835C316.693 98.6023 313.568 78.9842 306.173 56.222C294.121 59.7492 275.973 73.3016 266.416 81.6453C255.909 90.8188 266.708 89.3495 247.387 85.3631C233.033 82.4017 216.751 82.8193 202.69 87.0715C195.569 89.2252 197.813 85.0674 193.37 81.2375C184.831 73.877 165.819 60.2569 155.399 56.3649L155.011 56.222ZM101.193 299.118C106.544 303.961 116.857 306.814 123.88 307.575C150.889 310.502 174.565 291.825 179.574 265.505C180.279 261.803 178.884 256.323 184.48 257.576C184.465 252.678 183.792 247.672 181.829 243.167C184.801 244.616 187.669 246.388 190.499 248.099C214.267 259.401 233.541 261.131 258.869 251.367C272.044 246.288 286.061 237.811 291.976 224.507C290.576 222.321 286.71 225.884 284.415 227.126C254.266 243.438 223.168 244.371 191.236 234.697C190.052 236.061 181.1 243.619 179.484 242.411C175.83 239.681 173.33 221.774 151.717 209.922C150.311 210.261 143.784 207.914 140.869 207.658C92.849 203.443 65.7819 254.576 94.9335 292.272C96.1355 293.826 100.805 297.823 101.193 299.118ZM380.548 401.294C377.609 406.46 375.85 413.474 372.325 419.737C373.313 420.063 375.013 419.233 375.997 418.907C393.813 413.275 401.901 407.838 413.652 394.183C413.82 393.379 417.7 388.606 418.459 387.185C434.086 357.955 426.271 324.589 406.22 299.55C388.62 277.573 375.446 269.628 393.295 237.758C396.611 231.837 400.151 226.121 405.094 221.404C410.863 215.898 419.61 211.678 423.23 204.348C427.065 196.581 423.173 191.871 424.26 187.299C404.894 177.114 379.179 212.835 371.953 226.796C363.074 243.949 359.443 263.73 365.459 282.446C374.647 311.035 404.527 318.108 405.255 356.318C405.609 374.929 398.553 393.518 380.548 401.294ZM181.829 346.347C192.603 372.615 204.627 391.829 202.233 421.687L201.919 421.871C200.083 422.935 198.107 423.578 196.207 424.491C187.811 428.524 185.499 440.329 190.499 447.761C194.352 456.137 227.002 453.161 233.144 450.935C231.716 446.863 230.669 443.336 230.35 439.016C230.849 435.821 231.48 432.931 233.144 430.121C231.209 426.165 231.127 420.743 230.364 416.398C225.642 389.539 209.815 376.707 192.381 357.535C189.104 353.931 185.89 346.587 181.829 346.347ZM101.193 299.118C100.805 297.823 96.1355 293.826 94.9335 292.272C65.7819 254.576 92.849 203.443 140.869 207.658C143.784 207.914 150.311 210.261 151.717 209.922C128.474 196.304 97.869 206.395 84.6669 229.137C70.9908 252.695 78.0805 284.382 101.193 299.118ZM307.017 178.604L305.732 180.873C304.29 183.442 302.041 185.53 301.42 188.463C304.407 191.036 308.26 192.153 312.231 196C314.364 190.987 316.084 185.497 318.738 180.765C314.883 179.47 311.089 178.678 307.017 178.604ZM245.14 395.145C245.818 403.789 243.735 413.005 243.432 421.687C244.615 421.382 245.792 421.078 246.99 420.838C247.942 414.902 249.104 403.32 248.912 397.337C247.682 390.484 250.343 393.584 245.488 393.802C244.302 393.855 245.087 394.336 245.14 395.145ZM311.242 169.284C309.928 170.532 310.077 171.963 309.544 173.524C312.799 174.545 316.058 175.39 319.397 176.082C320.181 170.679 320.491 165.444 320.273 159.993C319.669 158.96 319.996 157.885 319.451 156.96C314.996 162.78 321.648 166.067 311.56 169.634L311.242 169.284ZM176.662 228.28C178.974 230.721 180.125 233.462 181.829 236.284C182.856 235.659 183.813 235.076 184.965 234.697C185.777 234.062 186.612 233.443 187.392 232.77C183.899 231.387 180.347 228.912 176.662 228.28ZM236.476 446.25C237.604 448.606 238.802 450.452 241.046 451.929C244.39 451.115 240.597 449.529 240.293 446.754C239.156 445.478 237.825 445.487 236.476 446.25Z"/>
	<path fill="white" transform="scale(0.5 0.5)" d="M240.293 446.754C243.981 448.711 247.183 448.654 251.247 448.419C266.168 447.557 273.358 447.438 282.64 434.426C284.871 431.298 288.266 423.93 291.976 424.101C287.7 433.205 284.689 448.229 274.243 451.947C269.15 453.759 247.1 454.582 241.046 451.929C244.39 451.115 240.597 449.529 240.293 446.754Z"/>
	<path fill="#FF7979" transform="scale(0.5 0.5)" d="M158.776 71.4153C163.853 73.5503 174.24 83.6739 178.713 87.7695C175.477 91.9639 171.584 95.8111 168.062 99.7804L158.174 110.837C156.866 112.297 155.634 113.889 154.268 115.286C152.8 105.39 156.441 80.7194 158.776 71.4153Z"/>
	<path fill="#FF7979" transform="scale(0.5 0.5)" d="M302.255 71.4153L302.319 71.7293C302.645 73.2749 303.32 74.8369 303.793 76.3561C308.576 91.7304 306.227 100.829 307.017 115.286C301.52 110.57 287.784 93.7501 283.013 87.7695C289.199 81.8062 295.441 76.6263 302.255 71.4153Z"/>
	<path fill="white" transform="scale(0.5 0.5)" d="M290.076 446.25C307.642 444.747 326.017 448.193 343.619 440.395C348.915 438.048 352.446 433.507 357.758 431.183C360.043 434.58 363.801 437.107 362.977 441.737C361.187 451.799 344.758 451.031 337.218 451.55C323.964 452.463 298.364 454.258 285.38 452.697C281.417 451.914 285.065 449.386 287.01 446.754C288.024 446.567 289.049 446.336 290.076 446.25Z"/>
	<path fill="white" transform="scale(0.5 0.5)" d="M295.934 190.806C299.848 192.252 303.409 194.865 307.017 196.932C307.874 197.757 308.714 198.592 309.544 199.444C308.376 200.937 307.246 202.438 306.173 204.002C275.62 237.059 224.198 244.839 183.758 226.441C179.359 224.439 174.357 222.153 170.889 218.711L171.309 218.459C171.873 218.874 172.334 219.185 173.01 219.411C172.774 218.807 172.6 217.826 173.106 217.317C190.13 224.718 212.023 232.303 230.992 230.523C251.853 228.564 276.037 214.126 289.633 198.023C291.631 195.656 293.259 192.479 295.934 190.806Z"/>
	<path fill="white" transform="scale(0.5 0.5)" d="M176.662 331.982C178.359 328.788 178.29 327.134 177.835 323.348L178.128 323.219C179.696 324.626 182.416 331.423 183.976 333.904C190.057 343.576 193.777 348.681 200.945 357.111C206.456 368.488 235.242 379.347 248.912 380.614C248.675 386.088 249.548 391.986 248.912 397.337C247.682 390.484 250.343 393.584 245.488 393.802C244.302 393.855 245.087 394.336 245.14 395.145C243.529 394.259 242.456 393.801 241.096 395.215C240.147 397.974 238.827 420.81 239.181 424.101C236.369 425.798 234.761 427.229 233.144 430.121C231.209 426.165 231.127 420.743 230.364 416.398C225.642 389.539 209.815 376.707 192.381 357.535C189.104 353.931 185.89 346.587 181.829 346.347C179.875 341.643 178.272 336.813 176.662 331.982Z"/>
	<path fill="white" transform="scale(0.5 0.5)" d="M424.26 187.299C432.269 192.264 432.836 202.034 428.052 209.629C424.724 214.911 419.214 218.237 414.581 222.242C404.475 230.979 395.492 246.404 392.377 259.121C392.374 259.136 392.365 259.149 392.359 259.162C389.445 288.883 417.376 294.42 426.477 321.496C427.682 323.76 428.569 326.018 429.329 328.464L430.235 331.982C431.592 335.651 432.293 339.51 432.844 343.373C439.628 390.929 408.063 422.456 364.346 431.183C366.069 428.672 370.389 421.676 372.325 419.737C373.313 420.063 375.013 419.233 375.997 418.907C393.813 413.275 401.901 407.838 413.652 394.183C413.82 393.379 417.7 388.606 418.459 387.185C434.086 357.955 426.271 324.589 406.22 299.55C388.62 277.573 375.446 269.628 393.295 237.758C396.611 231.837 400.151 226.121 405.094 221.404C410.863 215.898 419.61 211.678 423.23 204.348C427.065 196.581 423.173 191.871 424.26 187.299Z"/>
	<path fill="white" transform="scale(0.5 0.5)" d="M190.499 447.761C193.617 448.962 193.594 452.512 198.369 450.936L198.508 451.027L198.956 450.805L198.962 450.842C195.753 450.715 194.231 449 192.212 446.774C193.601 446.161 214.668 450.587 223.628 445.413C225.167 444.524 229.635 440.708 230.35 439.016C230.669 443.336 231.716 446.863 233.144 450.935C227.002 453.161 194.352 456.137 190.499 447.761Z"/>
	<path fill="#FF7979" transform="scale(0.5 0.5)" d="M101.193 299.118C100.805 297.823 96.1355 293.826 94.9335 292.272C65.7819 254.576 92.849 203.443 140.869 207.658C143.784 207.914 150.311 210.261 151.717 209.922C173.33 221.774 175.83 239.681 179.484 242.411C181.1 243.619 190.052 236.061 191.236 234.697C223.168 244.371 254.266 243.438 284.415 227.126C286.71 225.884 290.576 222.321 291.976 224.507C286.061 237.811 272.044 246.288 258.869 251.367C233.541 261.131 214.267 259.401 190.499 248.099C187.669 246.388 184.801 244.616 181.829 243.167C183.792 247.672 184.465 252.678 184.48 257.576C178.884 256.323 180.279 261.803 179.574 265.505C174.565 291.825 150.889 310.502 123.88 307.575C116.857 306.814 106.544 303.961 101.193 299.118ZM110.436 228.28C105.107 229.992 98.5132 235.78 100.626 242.096C101.949 246.05 110.371 253.314 113.492 256.663C109.607 260.651 100.338 268.088 100.357 273.119C100.385 280.619 109.762 287.787 116.64 283.34C120.459 280.87 125.199 275.043 128.911 271.772C133.857 276.957 138.978 285.483 147.058 284.738C152.405 282.915 158.502 276.508 156.25 270.431C154.765 266.423 146.987 259.748 143.68 256.663C147.554 252.794 156.88 245.433 156.789 239.759C156.699 234.171 150.276 228.008 144.658 228.285C138.874 228.571 132.2 237.188 128.911 241.944C124.127 236.956 118.102 227.67 110.436 228.28Z"/>
	<path fill="#363636" transform="scale(0.5 0.5)" d="M110.436 228.28C118.102 227.67 124.127 236.956 128.911 241.944C132.2 237.188 138.874 228.571 144.658 228.285C150.276 228.008 156.699 234.171 156.789 239.759C156.88 245.433 147.554 252.794 143.68 256.663C146.987 259.748 154.765 266.423 156.25 270.431C158.502 276.508 152.405 282.915 147.058 284.738C138.978 285.483 133.857 276.957 128.911 271.772C125.199 275.043 120.459 280.87 116.64 283.34C109.762 287.787 100.385 280.619 100.357 273.119C100.338 268.088 109.607 260.651 113.492 256.663C110.371 253.314 101.949 246.05 100.626 242.096C98.5132 235.78 105.107 229.992 110.436 228.28ZM111.409 232.77C107.535 234.087 105.412 236.308 104.388 240.177C106.898 244.253 119.326 254.163 118.578 257.063C117.713 260.417 106.477 267.875 105.073 272.069C103.565 276.574 110.065 281.892 114.171 279.573C118.029 277.394 125.44 265.591 129.144 266.603C135.229 268.265 139.065 280.761 145.519 280.357C164.955 272.188 136.638 262.61 138.649 255.631C139.906 251.272 163.051 239.084 147.276 233.288C139.21 230.325 132.936 248.215 127.998 246.553C123.307 244.974 116.113 231.759 111.409 232.77Z"/>
	<path fill="white" transform="scale(0.5 0.5)" d="M312.231 132.234C316.919 139.193 320.414 151.606 320.273 159.993C319.669 158.96 319.996 157.885 319.451 156.96C314.996 162.78 321.648 166.067 311.56 169.634L311.242 169.284C312.184 155.828 312.898 145.985 309.544 132.234C313.128 136.658 313.509 142.45 314.644 147.83C315.95 147.115 316.577 147.823 317.79 147.709C319.122 144.291 312.205 136.075 312.231 132.234Z"/>
	<path fill="#363636" transform="scale(0.5 0.5)" d="M228.766 191.624C248.105 190.802 256.737 210.77 249.384 209.247C246.239 208.596 246.655 198.09 230.855 196C214.224 195.776 213.732 208.755 210.778 209.357C205.879 210.355 209.379 202.667 210.99 200.734C215.949 194.786 221.09 192.293 228.766 191.624Z"/>
	<path fill="#363636" transform="scale(0.5 0.5)" d="M223.24 168.059C241.168 165.675 253.734 172.982 235.572 186.168C223.731 193.663 206.467 170.513 223.24 168.059Z"/>
	<path fill="#FF7979" transform="scale(0.5 0.5)" d="M224.709 172.308C233.981 172.266 248.229 170.513 234.058 181.756C232.851 182.618 231.669 183.369 230.35 184.048C226.714 182.244 213.867 173.414 224.709 172.308Z"/>
	<path fill="#363636" transform="scale(0.5 0.5)" d="M275.263 133.441C282.861 134.077 272.19 143.454 270.496 145.155C279.25 156.99 268.108 172.407 254.651 166.287C250.792 163.888 243.392 153.824 249.674 151.129C258.398 147.385 260.662 148.519 268.84 140.299C270.998 138.129 272.832 135.265 275.263 133.441Z"/>
	<path fill="#363636" transform="scale(0.5 0.5)" d="M182.544 132.234C185.868 133.029 189.173 138.904 191.753 141.305C199.592 148.598 207.022 148.823 211.573 152.665C212.955 158.031 208.61 163.009 204.882 166.287C187.748 171.433 180.187 154.152 188.655 145.155C186.274 142.624 177.605 135.534 182.544 132.234Z"/>
	<path fill="#363636" transform="scale(0.5 0.5)" d="M312.231 337.213C317.562 337.209 316.585 348.001 314.26 350.673C309.638 351.149 310.136 339.206 312.231 337.213Z"/>
	<path fill="white" transform="scale(0.5 0.5)" d="M181.829 243.167C184.801 244.616 187.669 246.388 190.499 248.099C189.969 251.617 191.292 255.224 191.313 258.757C191.392 272.055 186.795 293.891 174.043 300.868C173.639 301.565 172.981 301.993 172.363 302.494C172.175 300.568 171.366 295.398 171.348 294.002C170.914 294.565 170.487 295.122 169.979 295.623L169.628 295.965C169.509 294.987 175.597 287.599 176.662 286.225C181.419 277.28 185.29 267.931 184.48 257.576C184.465 252.678 183.792 247.672 181.829 243.167Z"/>
</svg>
