<?xml version="1.0" encoding="utf-8" ?>
<svg xmlns="http://www.w3.org/2000/svg" xmlns:xlink="http://www.w3.org/1999/xlink" width="256" height="256">
	<path fill="white" transform="scale(0.5 0.5)" d="M257.028 100.112C253.848 98.2723 238.271 113.061 234.461 116.146L87.5507 233.566C84.1562 236.266 80.6041 240.162 76.6424 241.88C65.6875 246.632 54.8805 233.902 59.776 223.642C62.5096 217.913 76.1523 208.792 81.2551 204.72L237.725 79.8662C242.602 75.9064 247.807 70.3234 253.893 68.305C259.928 67.7724 263.491 71.6658 267.84 75.1526L401.621 181.059C409.825 187.562 445.347 213.948 450.57 221.007C456.59 229.144 451.05 241.519 440.764 242.306C431.746 242.996 423.865 232.932 417.41 227.792L295.597 130.795C282.721 120.603 269.567 110.724 257.028 100.112Z"/>
	<path fill="white" transform="scale(0.5 0.5)" d="M116.126 247.641C123.39 241.552 131.607 236.036 139.082 230.048L233.606 155.048C240.906 149.252 248.495 143.846 255.736 137.97C260.964 141.55 265.878 145.611 270.861 149.521L349.955 212.052C356.889 217.596 390.959 245.512 395.946 247.641L395.947 352.554C395.947 375.465 395.786 398.382 396.189 421.285C396.446 435.939 379.554 433.67 370.002 433.667L257.028 433.659L139.688 433.671C114.707 433.678 116.13 432.001 116.13 405.766L116.126 247.641ZM215.257 286.02C214.979 290.373 215.243 294.855 215.248 299.226L215.257 407.783C242.485 407.781 269.76 407.429 296.983 407.783L296.983 286.02L215.257 286.02Z"/>
</svg>
